<?xml version="1.0" encoding="UTF-8" standalone="no"?>
<!-- Created with Inkscape (http://www.inkscape.org/) -->

<svg
   xmlns:dc="http://purl.org/dc/elements/1.1/"
   xmlns:cc="http://creativecommons.org/ns#"
   xmlns:rdf="http://www.w3.org/1999/02/22-rdf-syntax-ns#"
   xmlns:svg="http://www.w3.org/2000/svg"
   xmlns="http://www.w3.org/2000/svg"
   xmlns:sodipodi="http://sodipodi.sourceforge.net/DTD/sodipodi-0.dtd"
   xmlns:inkscape="http://www.inkscape.org/namespaces/inkscape"
   width="504.01764"
   height="267.16965"
   id="svg2"
   version="1.1"
   inkscape:version="0.48.4 r9939"
   sodipodi:docname="cloud_small_top.svg">
  <defs
     id="defs4" />
  <sodipodi:namedview
     id="base"
     pagecolor="#ffffff"
     bordercolor="#666666"
     borderopacity="1.0"
     inkscape:pageopacity="0.0"
     inkscape:pageshadow="2"
     inkscape:zoom="0.35"
     inkscape:cx="-304.93543"
     inkscape:cy="59.552918"
     inkscape:document-units="px"
     inkscape:current-layer="layer1"
     showgrid="false"
     fit-margin-top="0"
     fit-margin-left="0"
     fit-margin-right="0"
     fit-margin-bottom="0"
     inkscape:window-width="1366"
     inkscape:window-height="706"
     inkscape:window-x="-8"
     inkscape:window-y="-8"
     inkscape:window-maximized="1" />
  <metadata
     id="metadata7">
    <rdf:RDF>
      <cc:Work
         rdf:about="">
        <dc:format>image/svg+xml</dc:format>
        <dc:type
           rdf:resource="http://purl.org/dc/dcmitype/StillImage" />
        <dc:title></dc:title>
      </cc:Work>
    </rdf:RDF>
  </metadata>
  <g
     inkscape:label="Layer 1"
     inkscape:groupmode="layer"
     id="layer1"
     transform="translate(-234.22114,-349.03117)">
    <g
       id="g9776"
       transform="matrix(0.62501559,0,0,0.62501559,-2724.2753,-1247.365)">
      <path
         transform="matrix(2.0352373,0,0,1.8120219,-5415.6772,-2305.1985)"
         d="m 5188.9017,2788.5815 c 0,39.4926 -45.2605,71.5076 -101.0921,71.5076 -55.8316,0 -101.0921,-32.015 -101.0921,-71.5076 0,-39.4925 45.2605,-71.5075 101.0921,-71.5075 55.8316,0 101.0921,32.015 101.0921,71.5075 z"
         sodipodi:ry="71.50753"
         sodipodi:rx="101.09209"
         sodipodi:cy="2788.5815"
         sodipodi:cx="5087.8096"
         id="path9636-9"
         style="opacity:0.98000004;fill:#bdcdde;fill-opacity:1;fill-rule:nonzero;stroke:none"
         sodipodi:type="arc" />
      <path
         transform="matrix(1.9753793,-0.43622958,0.48996687,1.7587288,-6313.151,163.41887)"
         d="m 5188.9017,2788.5815 c 0,39.4926 -45.2605,71.5076 -101.0921,71.5076 -55.8316,0 -101.0921,-32.015 -101.0921,-71.5076 0,-39.4925 45.2605,-71.5075 101.0921,-71.5075 55.8316,0 101.0921,32.015 101.0921,71.5075 z"
         sodipodi:ry="71.50753"
         sodipodi:rx="101.09209"
         sodipodi:cy="2788.5815"
         sodipodi:cx="5087.8096"
         id="path9636-3-31"
         style="opacity:0.98000004;fill:#bdcdde;fill-opacity:1;fill-rule:nonzero;stroke:none"
         sodipodi:type="arc" />
      <path
         transform="matrix(1.9753793,-0.43622958,0.48996687,1.7587288,-6328.6789,21.303627)"
         d="m 5188.9017,2788.5815 c 0,39.4926 -45.2605,71.5076 -101.0921,71.5076 -55.8316,0 -101.0921,-32.015 -101.0921,-71.5076 0,-39.4925 45.2605,-71.5075 101.0921,-71.5075 55.8316,0 101.0921,32.015 101.0921,71.5075 z"
         sodipodi:ry="71.50753"
         sodipodi:rx="101.09209"
         sodipodi:cy="2788.5815"
         sodipodi:cx="5087.8096"
         id="path9636-3-3-9"
         style="opacity:0.98000004;fill:#bdcdde;fill-opacity:1;fill-rule:nonzero;stroke:none"
         sodipodi:type="arc" />
      <path
         transform="matrix(1.9753793,-0.43622958,0.48996687,1.7587288,-6079.5611,2.5709449)"
         d="m 5188.9017,2788.5815 c 0,39.4926 -45.2605,71.5076 -101.0921,71.5076 -55.8316,0 -101.0921,-32.015 -101.0921,-71.5076 0,-39.4925 45.2605,-71.5075 101.0921,-71.5075 55.8316,0 101.0921,32.015 101.0921,71.5075 z"
         sodipodi:ry="71.50753"
         sodipodi:rx="101.09209"
         sodipodi:cy="2788.5815"
         sodipodi:cx="5087.8096"
         id="path9636-3-4-8"
         style="opacity:0.98000004;fill:#bdcdde;fill-opacity:1;fill-rule:nonzero;stroke:none"
         sodipodi:type="arc" />
      <path
         transform="matrix(1.9753793,-0.43622958,0.48996687,1.7587288,-6088.411,110.44731)"
         d="m 5188.9017,2788.5815 c 0,39.4926 -45.2605,71.5076 -101.0921,71.5076 -55.8316,0 -101.0921,-32.015 -101.0921,-71.5076 0,-39.4925 45.2605,-71.5075 101.0921,-71.5075 55.8316,0 101.0921,32.015 101.0921,71.5075 z"
         sodipodi:ry="71.50753"
         sodipodi:rx="101.09209"
         sodipodi:cy="2788.5815"
         sodipodi:cx="5087.8096"
         id="path9636-3-1-6"
         style="opacity:0.98000004;fill:#bdcdde;fill-opacity:1;fill-rule:nonzero;stroke:none"
         sodipodi:type="arc" />
    </g>
  </g>
</svg>
