<?xml version="1.0" encoding="UTF-8" standalone="no"?>
<!-- Created with Inkscape (http://www.inkscape.org/) -->

<svg
   xmlns:dc="http://purl.org/dc/elements/1.1/"
   xmlns:cc="http://creativecommons.org/ns#"
   xmlns:rdf="http://www.w3.org/1999/02/22-rdf-syntax-ns#"
   xmlns:svg="http://www.w3.org/2000/svg"
   xmlns="http://www.w3.org/2000/svg"
   xmlns:sodipodi="http://sodipodi.sourceforge.net/DTD/sodipodi-0.dtd"
   xmlns:inkscape="http://www.inkscape.org/namespaces/inkscape"
   width="504.01749"
   height="267.16968"
   id="svg2"
   version="1.1"
   inkscape:version="0.48.4 r9939"
   sodipodi:docname="cloud_big_top.svg">
  <defs
     id="defs4" />
  <sodipodi:namedview
     id="base"
     pagecolor="#ffffff"
     bordercolor="#666666"
     borderopacity="1.0"
     inkscape:pageopacity="0.0"
     inkscape:pageshadow="2"
     inkscape:zoom="0.7"
     inkscape:cx="14.189082"
     inkscape:cy="93.997216"
     inkscape:document-units="px"
     inkscape:current-layer="layer1"
     showgrid="false"
     fit-margin-top="0"
     fit-margin-left="0"
     fit-margin-right="0"
     fit-margin-bottom="0"
     inkscape:window-width="1366"
     inkscape:window-height="706"
     inkscape:window-x="-8"
     inkscape:window-y="-8"
     inkscape:window-maximized="1" />
  <metadata
     id="metadata7">
    <rdf:RDF>
      <cc:Work
         rdf:about="">
        <dc:format>image/svg+xml</dc:format>
        <dc:type
           rdf:resource="http://purl.org/dc/dcmitype/StillImage" />
        <dc:title></dc:title>
      </cc:Work>
    </rdf:RDF>
  </metadata>
  <g
     inkscape:label="Layer 1"
     inkscape:groupmode="layer"
     id="layer1"
     transform="translate(-281.13101,-395.61828)">
    <g
       id="g4435">
      <path
         transform="matrix(1.272055,0,0,1.1325419,-6062.2479,-2641.5628)"
         d="m 5188.9017,2788.5815 c 0,39.4926 -45.2605,71.5076 -101.0921,71.5076 -55.8316,0 -101.0921,-32.015 -101.0921,-71.5076 0,-39.4925 45.2605,-71.5075 101.0921,-71.5075 55.8316,0 101.0921,32.015 101.0921,71.5075 z"
         sodipodi:ry="71.50753"
         sodipodi:rx="101.09209"
         sodipodi:cy="2788.5815"
         sodipodi:cx="5087.8096"
         id="path9636"
         style="fill:#eff3f7;fill-opacity:1;fill-rule:nonzero;stroke:none"
         sodipodi:type="arc" />
      <path
         transform="matrix(1.2346428,-0.27265028,0.30623692,1.0992329,-6623.183,-1098.6385)"
         d="m 5188.9017,2788.5815 c 0,39.4926 -45.2605,71.5076 -101.0921,71.5076 -55.8316,0 -101.0921,-32.015 -101.0921,-71.5076 0,-39.4925 45.2605,-71.5075 101.0921,-71.5075 55.8316,0 101.0921,32.015 101.0921,71.5075 z"
         sodipodi:ry="71.50753"
         sodipodi:rx="101.09209"
         sodipodi:cy="2788.5815"
         sodipodi:cx="5087.8096"
         id="path9636-3"
         style="fill:#eff3f7;fill-opacity:1;fill-rule:nonzero;stroke:none"
         sodipodi:type="arc" />
      <path
         transform="matrix(1.2346428,-0.27265028,0.30623692,1.0992329,-6632.8882,-1187.4628)"
         d="m 5188.9017,2788.5815 c 0,39.4926 -45.2605,71.5076 -101.0921,71.5076 -55.8316,0 -101.0921,-32.015 -101.0921,-71.5076 0,-39.4925 45.2605,-71.5075 101.0921,-71.5075 55.8316,0 101.0921,32.015 101.0921,71.5075 z"
         sodipodi:ry="71.50753"
         sodipodi:rx="101.09209"
         sodipodi:cy="2788.5815"
         sodipodi:cx="5087.8096"
         id="path9636-3-3"
         style="fill:#eff3f7;fill-opacity:1;fill-rule:nonzero;stroke:none"
         sodipodi:type="arc" />
      <path
         transform="matrix(1.2346428,-0.27265028,0.30623692,1.0992329,-6477.1857,-1199.171)"
         d="m 5188.9017,2788.5815 c 0,39.4926 -45.2605,71.5076 -101.0921,71.5076 -55.8316,0 -101.0921,-32.015 -101.0921,-71.5076 0,-39.4925 45.2605,-71.5075 101.0921,-71.5075 55.8316,0 101.0921,32.015 101.0921,71.5075 z"
         sodipodi:ry="71.50753"
         sodipodi:rx="101.09209"
         sodipodi:cy="2788.5815"
         sodipodi:cx="5087.8096"
         id="path9636-3-4"
         style="fill:#eff3f7;fill-opacity:1;fill-rule:nonzero;stroke:none"
         sodipodi:type="arc" />
      <path
         transform="matrix(1.2346428,-0.27265028,0.30623692,1.0992329,-6482.717,-1131.7466)"
         d="m 5188.9017,2788.5815 c 0,39.4926 -45.2605,71.5076 -101.0921,71.5076 -55.8316,0 -101.0921,-32.015 -101.0921,-71.5076 0,-39.4925 45.2605,-71.5075 101.0921,-71.5075 55.8316,0 101.0921,32.015 101.0921,71.5075 z"
         sodipodi:ry="71.50753"
         sodipodi:rx="101.09209"
         sodipodi:cy="2788.5815"
         sodipodi:cx="5087.8096"
         id="path9636-3-1"
         style="fill:#eff3f7;fill-opacity:1;fill-rule:nonzero;stroke:none"
         sodipodi:type="arc" />
      <path
         transform="matrix(0.61762891,-0.0958072,0.11255671,0.72560604,-2882.4453,-994.17804)"
         d="m 5319.0333,2829.2571 c 0,29.3373 -74.3914,53.1199 -166.1578,53.1199 -91.7665,0 -166.1578,-23.7826 -166.1578,-53.1199 0,-29.3373 74.3913,-53.1199 166.1578,-53.1199 91.7664,0 166.1578,23.7826 166.1578,53.1199 z"
         sodipodi:ry="53.119877"
         sodipodi:rx="166.15784"
         sodipodi:cy="2829.2571"
         sodipodi:cx="5152.8755"
         id="path9930"
         style="fill:#c9d5e4;fill-opacity:1;fill-rule:nonzero;stroke:none"
         sodipodi:type="arc" />
      <path
         transform="matrix(0.61762891,-0.0958072,0.11255671,0.72560604,-2878.3674,-999.12634)"
         d="m 5319.0333,2829.2571 c 0,29.3373 -74.3914,53.1199 -166.1578,53.1199 -91.7665,0 -166.1578,-23.7826 -166.1578,-53.1199 0,-29.3373 74.3913,-53.1199 166.1578,-53.1199 91.7664,0 166.1578,23.7826 166.1578,53.1199 z"
         sodipodi:ry="53.119877"
         sodipodi:rx="166.15784"
         sodipodi:cy="2829.2571"
         sodipodi:cx="5152.8755"
         id="path9930-6"
         style="fill:#eff3f7;fill-opacity:1;fill-rule:nonzero;stroke:none"
         sodipodi:type="arc" />
      <path
         transform="matrix(0.61653595,-0.10260564,-0.12054369,-0.72432194,-2363.1583,3071.8366)"
         d="m 5319.0333,2829.2571 c 0,29.3373 -74.3914,53.1199 -166.1578,53.1199 -91.7665,0 -166.1578,-23.7826 -166.1578,-53.1199 0,-29.3373 74.3913,-53.1199 166.1578,-53.1199 91.7664,0 166.1578,23.7826 166.1578,53.1199 z"
         sodipodi:ry="53.119877"
         sodipodi:rx="166.15784"
         sodipodi:cy="2829.2571"
         sodipodi:cx="5152.8755"
         id="path9930-3"
         style="fill:#c9d5e4;fill-opacity:1;fill-rule:nonzero;stroke:none"
         sodipodi:type="arc" />
      <path
         transform="matrix(0.6668667,-0.05563578,-0.05230905,-0.73283247,-2805.6215,2862.682)"
         d="m 5319.0333,2829.2571 c 0,29.3373 -74.3914,53.1199 -166.1578,53.1199 -91.7665,0 -166.1578,-23.7826 -166.1578,-53.1199 0,-29.3373 74.3913,-53.1199 166.1578,-53.1199 91.7664,0 166.1578,23.7826 166.1578,53.1199 z"
         sodipodi:ry="53.119877"
         sodipodi:rx="166.15784"
         sodipodi:cy="2829.2571"
         sodipodi:cx="5152.8755"
         id="path9930-6-7"
         style="fill:#eff3f7;fill-opacity:1;fill-rule:nonzero;stroke:none"
         sodipodi:type="arc" />
      <path
         transform="matrix(0.61762891,-0.0958072,0.11255671,0.72560604,-2977.4692,-973.49704)"
         d="m 5319.0333,2829.2571 c 0,29.3373 -74.3914,53.1199 -166.1578,53.1199 -91.7665,0 -166.1578,-23.7826 -166.1578,-53.1199 0,-29.3373 74.3913,-53.1199 166.1578,-53.1199 91.7664,0 166.1578,23.7826 166.1578,53.1199 z"
         sodipodi:ry="53.119877"
         sodipodi:rx="166.15784"
         sodipodi:cy="2829.2571"
         sodipodi:cx="5152.8755"
         id="path9930-8"
         style="fill:#c9d5e4;fill-opacity:1;fill-rule:nonzero;stroke:none"
         sodipodi:type="arc" />
      <path
         transform="matrix(0.61762891,-0.0958072,0.11255671,0.72560604,-2973.3913,-978.44544)"
         d="m 5319.0333,2829.2571 c 0,29.3373 -74.3914,53.1199 -166.1578,53.1199 -91.7665,0 -166.1578,-23.7826 -166.1578,-53.1199 0,-29.3373 74.3913,-53.1199 166.1578,-53.1199 91.7664,0 166.1578,23.7826 166.1578,53.1199 z"
         sodipodi:ry="53.119877"
         sodipodi:rx="166.15784"
         sodipodi:cy="2829.2571"
         sodipodi:cx="5152.8755"
         id="path9930-6-8"
         style="fill:#eff3f7;fill-opacity:1;fill-rule:nonzero;stroke:none"
         sodipodi:type="arc" />
    </g>
  </g>
</svg>
