<?xml version="1.0" encoding="UTF-8" standalone="no"?>
<!-- Created with Inkscape (http://www.inkscape.org/) -->

<svg
   xmlns:dc="http://purl.org/dc/elements/1.1/"
   xmlns:cc="http://creativecommons.org/ns#"
   xmlns:rdf="http://www.w3.org/1999/02/22-rdf-syntax-ns#"
   xmlns:svg="http://www.w3.org/2000/svg"
   xmlns="http://www.w3.org/2000/svg"
   xmlns:sodipodi="http://sodipodi.sourceforge.net/DTD/sodipodi-0.dtd"
   xmlns:inkscape="http://www.inkscape.org/namespaces/inkscape"
   width="504.01764"
   height="267.16965"
   id="svg2"
   version="1.1"
   inkscape:version="0.48.4 r9939"
   sodipodi:docname="cloud_big_bottom.svg">
  <defs
     id="defs4" />
  <sodipodi:namedview
     id="base"
     pagecolor="#ffffff"
     bordercolor="#666666"
     borderopacity="1.0"
     inkscape:pageopacity="0.0"
     inkscape:pageshadow="2"
     inkscape:zoom="0.35"
     inkscape:cx="-750.64972"
     inkscape:cy="35.267204"
     inkscape:document-units="px"
     inkscape:current-layer="layer1"
     showgrid="false"
     fit-margin-top="0"
     fit-margin-left="0"
     fit-margin-right="0"
     fit-margin-bottom="0"
     inkscape:window-width="1366"
     inkscape:window-height="706"
     inkscape:window-x="-8"
     inkscape:window-y="-8"
     inkscape:window-maximized="1" />
  <metadata
     id="metadata7">
    <rdf:RDF>
      <cc:Work
         rdf:about="">
        <dc:format>image/svg+xml</dc:format>
        <dc:type
           rdf:resource="http://purl.org/dc/dcmitype/StillImage" />
        <dc:title />
      </cc:Work>
    </rdf:RDF>
  </metadata>
  <g
     inkscape:label="Layer 1"
     inkscape:groupmode="layer"
     id="layer1"
     transform="translate(-234.22114,-349.03117)">
    <g
       id="g7745">
      <path
         transform="matrix(1.272055,0,0,1.1325419,-6109.158,-2688.15)"
         d="m 5188.9017,2788.5815 a 101.09209,71.50753 0 1 1 -202.1842,0 101.09209,71.50753 0 1 1 202.1842,0 z"
         sodipodi:ry="71.50753"
         sodipodi:rx="101.09209"
         sodipodi:cy="2788.5815"
         sodipodi:cx="5087.8096"
         id="path9636-9"
         style="opacity:1;fill:#bdcdde;fill-opacity:1;fill-rule:nonzero;stroke:none"
         sodipodi:type="arc" />
      <path
         transform="matrix(1.2346429,-0.27265029,0.30623693,1.0992329,-6670.0931,-1145.2257)"
         d="m 5188.9017,2788.5815 a 101.09209,71.50753 0 1 1 -202.1842,0 101.09209,71.50753 0 1 1 202.1842,0 z"
         sodipodi:ry="71.50753"
         sodipodi:rx="101.09209"
         sodipodi:cy="2788.5815"
         sodipodi:cx="5087.8096"
         id="path9636-3-31"
         style="opacity:1;fill:#bdcdde;fill-opacity:1;fill-rule:nonzero;stroke:none"
         sodipodi:type="arc" />
      <path
         transform="matrix(1.2346429,-0.27265029,0.30623693,1.0992329,-6679.7983,-1234.0499)"
         d="m 5188.9017,2788.5815 a 101.09209,71.50753 0 1 1 -202.1842,0 101.09209,71.50753 0 1 1 202.1842,0 z"
         sodipodi:ry="71.50753"
         sodipodi:rx="101.09209"
         sodipodi:cy="2788.5815"
         sodipodi:cx="5087.8096"
         id="path9636-3-3-9"
         style="opacity:1;fill:#bdcdde;fill-opacity:1;fill-rule:nonzero;stroke:none"
         sodipodi:type="arc" />
      <path
         transform="matrix(1.2346429,-0.27265029,0.30623693,1.0992329,-6524.0958,-1245.7581)"
         d="m 5188.9017,2788.5815 a 101.09209,71.50753 0 1 1 -202.1842,0 101.09209,71.50753 0 1 1 202.1842,0 z"
         sodipodi:ry="71.50753"
         sodipodi:rx="101.09209"
         sodipodi:cy="2788.5815"
         sodipodi:cx="5087.8096"
         id="path9636-3-4-8"
         style="opacity:1;fill:#bdcdde;fill-opacity:1;fill-rule:nonzero;stroke:none"
         sodipodi:type="arc" />
      <path
         transform="matrix(1.2346429,-0.27265029,0.30623693,1.0992329,-6529.6271,-1178.3337)"
         d="m 5188.9017,2788.5815 a 101.09209,71.50753 0 1 1 -202.1842,0 101.09209,71.50753 0 1 1 202.1842,0 z"
         sodipodi:ry="71.50753"
         sodipodi:rx="101.09209"
         sodipodi:cy="2788.5815"
         sodipodi:cx="5087.8096"
         id="path9636-3-1-6"
         style="opacity:1;fill:#bdcdde;fill-opacity:1;fill-rule:nonzero;stroke:none"
         sodipodi:type="arc" />
    </g>
  </g>
</svg>
