<?xml version="1.0" encoding="UTF-8" standalone="no"?>
<!-- Created with Inkscape (http://www.inkscape.org/) -->

<svg
   xmlns:dc="http://purl.org/dc/elements/1.1/"
   xmlns:cc="http://creativecommons.org/ns#"
   xmlns:rdf="http://www.w3.org/1999/02/22-rdf-syntax-ns#"
   xmlns:svg="http://www.w3.org/2000/svg"
   xmlns="http://www.w3.org/2000/svg"
   xmlns:sodipodi="http://sodipodi.sourceforge.net/DTD/sodipodi-0.dtd"
   xmlns:inkscape="http://www.inkscape.org/namespaces/inkscape"
   width="44.671753"
   height="129.69493"
   id="svg2"
   version="1.1"
   inkscape:version="0.48.4 r9939"
   sodipodi:docname="leaf7.svg">
  <defs
     id="defs4" />
  <sodipodi:namedview
     id="base"
     pagecolor="#ffffff"
     bordercolor="#666666"
     borderopacity="1.0"
     inkscape:pageopacity="0.0"
     inkscape:pageshadow="2"
     inkscape:zoom="0.35"
     inkscape:cx="-283.23038"
     inkscape:cy="501.86485"
     inkscape:document-units="px"
     inkscape:current-layer="layer1"
     showgrid="false"
     fit-margin-top="0"
     fit-margin-left="0"
     fit-margin-right="0"
     fit-margin-bottom="0"
     inkscape:window-width="1680"
     inkscape:window-height="1028"
     inkscape:window-x="2958"
     inkscape:window-y="-8"
     inkscape:window-maximized="1" />
  <metadata
     id="metadata7">
    <rdf:RDF>
      <cc:Work
         rdf:about="">
        <dc:format>image/svg+xml</dc:format>
        <dc:type
           rdf:resource="http://purl.org/dc/dcmitype/StillImage" />
        <dc:title></dc:title>
      </cc:Work>
    </rdf:RDF>
  </metadata>
  <g
     inkscape:label="Layer 1"
     inkscape:groupmode="layer"
     id="layer1"
     transform="translate(-658.23037,-2521.7858)">
    <path
       style="fill:#adcf4f;fill-opacity:1;fill-rule:nonzero;stroke:none"
       id="path4431-1-8-8-5-5-7-7"
       d="m 674.55432,2650.8709 c 0.029,-0.09 0.084,-0.1681 0.1251,-0.2522 0.08,-0.1117 0.1528,-0.227 0.2235,-0.3437 0.094,-0.1558 0.1892,-0.3112 0.2849,-0.4663 0.1125,-0.2028 0.2508,-0.3901 0.382,-0.5811 0.1502,-0.2191 0.3058,-0.4339 0.4567,-0.6527 0.1634,-0.2474 0.3276,-0.494 0.4942,-0.7392 0.1937,-0.2793 0.3785,-0.5651 0.566,-0.8488 0.2083,-0.3215 0.4083,-0.648 0.6088,-0.9743 0.2143,-0.3501 0.4285,-0.7003 0.634,-1.0557 0.2186,-0.3767 0.4307,-0.7566 0.6429,-1.1366 0.2207,-0.4026 0.4414,-0.8052 0.6528,-1.2127 0.22,-0.4198 0.4325,-0.8436 0.6297,-1.2749 0.2073,-0.4423 0.4048,-0.889 0.5929,-1.3398 0.1904,-0.4621 0.3715,-0.9277 0.5489,-1.3949 0.1773,-0.47 0.3395,-0.9456 0.5017,-1.4213 0.1637,-0.4767 0.3083,-0.9596 0.4625,-1.4395 0.1443,-0.4852 0.2838,-0.9717 0.4176,-1.46 0.1309,-0.4925 0.2579,-0.9861 0.3733,-1.4825 0.1207,-0.4968 0.2286,-0.9962 0.3352,-1.496 0.1067,-0.5022 0.2074,-1.0055 0.3049,-1.5096 0.098,-0.5073 0.1878,-1.0159 0.2778,-1.5248 0.09,-0.516 0.1736,-1.0333 0.255,-1.5508 0.08,-0.5283 0.1552,-1.0573 0.229,-1.5863 0.072,-0.5393 0.1473,-1.0782 0.2159,-1.6181 0.072,-0.5458 0.1411,-1.0923 0.2065,-1.6391 0.064,-0.5491 0.1222,-1.0991 0.1785,-1.6491 0.057,-0.5533 0.1047,-1.1071 0.1494,-1.6613 0.044,-0.5535 0.078,-1.1078 0.105,-1.6624 0.029,-0.5504 0.041,-1.1014 0.049,-1.6526 0.01,-0.5539 -0.01,-1.1075 -0.029,-1.6609 -0.023,-0.5602 -0.068,-1.1192 -0.1237,-1.6769 -0.057,-0.5638 -0.1253,-1.1262 -0.2039,-1.6873 -0.077,-0.57 -0.1749,-1.1365 -0.2727,-1.703 -0.092,-0.5715 -0.2127,-1.1378 -0.3259,-1.705 -0.1222,-0.572 -0.256,-1.1415 -0.3967,-1.709 -0.1369,-0.5636 -0.2855,-1.1243 -0.43,-1.6859 -0.147,-0.5514 -0.3,-1.1012 -0.464,-1.6479 -0.1594,-0.5419 -0.3278,-1.0814 -0.5011,-1.6192 -0.1742,-0.5332 -0.3556,-1.0638 -0.5412,-1.5932 -0.1856,-0.5232 -0.3731,-1.0458 -0.5669,-1.5661 -0.1878,-0.5012 -0.3836,-0.9995 -0.5614,-1.5045 -0.052,-0.192 -0.2879,-0.914 -0.1239,-1.0781 0.066,-0.066 0.1684,-0.077 0.2523,-0.115 0,0 0.6096,0.2104 0.6096,0.2104 l 0,0 c 0.1404,0.1155 0.2911,0.2185 0.4205,0.3461 0.3602,0.3511 0.5497,0.861 0.7686,1.3008 0.1996,0.4987 0.3826,1.0042 0.5692,1.5081 0.1935,0.5224 0.3878,1.0445 0.5697,1.5713 0.1847,0.5298 0.3656,1.0613 0.5347,1.5964 0.1734,0.5403 0.3462,1.0808 0.5036,1.626 0.1557,0.5493 0.3132,1.0984 0.4571,1.6509 0.152,0.5624 0.2951,1.1268 0.4351,1.692 0.136,0.5697 0.2719,1.1393 0.3883,1.7133 0.1167,0.5696 0.2265,1.1406 0.3284,1.7131 0.101,0.5675 0.1862,1.1375 0.2665,1.7082 0.074,0.563 0.1428,1.127 0.1946,1.6925 0.05,0.5612 0.096,1.1229 0.1153,1.6861 0.021,0.5558 0.03,1.1123 0.019,1.6685 -0.01,0.5529 -0.027,1.1059 -0.054,1.6581 -0.028,0.5565 -0.062,1.1128 -0.1075,1.668 -0.045,0.5557 -0.093,1.111 -0.1508,1.6654 -0.056,0.551 -0.1135,1.1021 -0.1819,1.6516 -0.066,0.5476 -0.1348,1.0946 -0.2074,1.6414 -0.073,0.5391 -0.1442,1.0789 -0.2204,1.6176 -0.074,0.5302 -0.1473,1.0604 -0.232,1.589 -0.082,0.5187 -0.1675,1.0366 -0.2583,1.5537 -0.09,0.5095 -0.1852,1.0181 -0.2834,1.526 -0.098,0.5052 -0.1991,1.01 -0.3065,1.5133 -0.1074,0.5012 -0.2208,1.0011 -0.3393,1.5 -0.1246,0.4958 -0.2454,0.9927 -0.3825,1.4852 -0.1343,0.49 -0.2724,0.9789 -0.4221,1.4644 -0.1453,0.485 -0.3001,0.9669 -0.4644,1.4456 -0.1638,0.4772 -0.3351,0.9516 -0.5159,1.4226 -0.1789,0.469 -0.3674,0.9344 -0.562,1.3973 -0.1963,0.4509 -0.3916,0.9019 -0.6097,1.3426 -0.2117,0.4271 -0.4224,0.8551 -0.6479,1.2752 -0.2205,0.4053 -0.4414,0.8097 -0.6714,1.2097 -0.2167,0.3805 -0.4424,0.7556 -0.6708,1.1293 -0.2148,0.3516 -0.4211,0.708 -0.6447,1.0542 -0.2011,0.3286 -0.412,0.6513 -0.6268,0.9713 -0.1887,0.2864 -0.3836,0.5687 -0.5836,0.8471 -0.1769,0.2431 -0.3577,0.483 -0.5433,0.7192 -0.162,0.2137 -0.3214,0.4295 -0.4875,0.6401 -0.1449,0.1861 -0.2907,0.3716 -0.4459,0.549 -0.1169,0.1449 -0.2282,0.2947 -0.3474,0.4379 -0.092,0.1087 -0.1818,0.2188 -0.2749,0.3264 -0.075,0.071 -0.141,0.1482 -0.2277,0.2032 0,0 -1.3276,-0.6157 -1.3276,-0.6157 z"
       inkscape:connector-curvature="0" />
    <path
       style="fill:#819f2f;fill-opacity:1;fill-rule:nonzero;stroke:none"
       d="m 660.08622,2521.8751 c 1.4708,0.5579 0.8376,0.2768 1.9764,0.8751 1.1786,0.7484 2.2298,1.4913 3.2794,2.3121 1.0484,0.8203 2.0733,1.6359 3.0874,2.4736 1.0566,0.8607 2.1234,1.7892 3.1569,2.6601 1.057,0.8911 2.1331,1.7528 3.1576,2.6604 1.0587,0.9233 2.069,1.8543 3.1048,2.7843 1.0404,0.9536 2.0884,1.949 3.0939,2.9159 1.0207,0.9802 2.0546,1.9224 3.0499,2.912 0.9959,1.0017 1.9498,2.0193 2.9056,3.0325 0.9532,1.0197 1.9164,2.0754 2.8097,3.1128 0.8754,1.021 1.7617,2.0451 2.5443,3.0901 0.7591,1.0142 1.4405,1.9752 2.1046,3.0091 0.6467,1.0133 1.2254,2.0883 1.7837,3.1145 0.5459,1.0067 1.0997,1.9942 1.5698,3.008 0.4577,0.9963 0.872,2.0244 1.2561,3.0261 0.379,0.9811 0.7511,1.9393 1.0865,2.923 0.331,0.9635 0.6706,1.947 0.9534,2.9118 0.2724,0.9383 0.4765,1.8632 0.6958,2.8016 0.216,0.9182 0.4199,1.8296 0.5667,2.746 0.1497,0.905 0.3007,1.7859 0.3932,2.6875 0.09,0.8845 0.1749,1.8359 0.2124,2.7163 0.033,0.8587 0.037,1.6683 0.01,2.5218 -0.032,0.84 -0.014,1.6792 -0.079,2.5146 -0.071,0.8244 -0.1722,1.6815 -0.3029,2.4959 -0.1205,0.7996 -0.3125,1.5602 -0.514,2.3451 -0.1958,0.7701 -0.471,1.5278 -0.7313,2.2827 -0.2772,0.7289 -0.5295,1.4686 -0.8567,2.1836 -0.3186,0.6813 -0.6846,1.3611 -1.0225,2.0366 -0.3188,0.6227 -0.6099,1.2532 -0.9628,1.8649 -0.3339,0.5534 -0.6637,1.0504 -1.0289,1.594 -0.3266,0.4938 -0.6558,1.0263 -1.0215,1.5062 -0.337,0.4293 -0.6733,0.8689 -1.0464,1.2829 -0.3459,0.3718 -0.6937,0.7503 -1.0764,1.1032 -0.3292,0.3164 -0.7269,0.6149 -1.0604,0.9282 -0.3174,0.2596 -0.6139,0.558 -0.9597,0.8049 -0.3107,0.2071 -0.6047,0.3477 -0.9384,0.5397 -0.2839,0.1544 -0.6184,0.3194 -0.9306,0.4519 -0.2548,0.1136 -0.4639,0.2452 -0.7426,0.3354 -0.2323,0.071 -0.489,0.097 -0.7272,0.16 -0.2138,0.04 -0.4242,0.1259 -0.6387,0.1668 -0.053,-0.018 -0.084,0.016 -0.1337,-0.019 -0.1771,0.078 -0.3634,0.1622 -0.5538,0.2184 -0.1746,0.044 -0.3246,0.093 -0.5021,0.1342 -0.1583,0.025 -0.3395,0.066 -0.4982,0.091 -0.2014,-0.083 -0.3303,-0.1248 -0.4759,-0.1736 -0.1361,0.1302 -0.2681,0.2568 -0.4409,0.4483 -0.1975,0.092 -0.4041,0.1706 -0.6023,0.2589 -0.1635,0.063 -0.3431,0.117 -0.5056,0.1784 l -0.074,-0.1837 c -0.099,0.037 -0.1879,0.07 -0.2767,0.1105 -0.1736,0.057 -0.3319,0.1299 -0.5061,0.1783 -0.2086,0.065 -0.425,0.044 -0.6312,0.081 -0.2491,0.044 -0.5265,0.094 -0.7675,0.1117 -0.2875,0.02 -0.5687,0.027 -0.8491,0.01 -0.3181,-0.026 -0.5755,-0.075 -0.8816,-0.1186 -0.3386,-0.077 -0.7131,-0.1461 -1.0508,-0.222 -0.3866,-0.075 -0.8083,-0.1773 -1.1805,-0.277 -0.4081,-0.1167 -0.7386,-0.2107 -1.1288,-0.3608 -0.4304,-0.1664 -0.8737,-0.4007 -1.2864,-0.5954 -0.4566,-0.2108 -0.8434,-0.404 -1.2828,-0.6393 -0.479,-0.2629 -0.979,-0.5894 -1.4409,-0.8737 -0.4971,-0.3129 -0.9942,-0.5971 -1.4818,-0.9217 -0.5081,-0.3424 -0.9805,-0.767 -1.4624,-1.1414 -0.4794,-0.4042 -0.9646,-0.7443 -1.4184,-1.1766 -0.4597,-0.4449 -0.9328,-0.9098 -1.3474,-1.4015 -0.4323,-0.4925 -0.8081,-1.033 -1.2034,-1.562 -0.3967,-0.5387 -0.8207,-1.1323 -1.1921,-1.6933 -0.3796,-0.5679 -0.7061,-1.1314 -1.0555,-1.7259 -0.3534,-0.6137 -0.6783,-1.2143 -1.0003,-1.8541 -0.3274,-0.6513 -0.6042,-1.3429 -0.8965,-2.0222 -0.3008,-0.6854 -0.5855,-1.39 -0.8446,-2.1062 -0.2651,-0.7312 -0.5122,-1.4766 -0.7447,-2.2304 -0.2371,-0.7766 -0.4378,-1.5582 -0.6449,-2.355 -0.2132,-0.8112 -0.4469,-1.658 -0.6333,-2.4864 -0.1963,-0.8437 -0.3501,-1.6905 -0.4932,-2.5633 -0.1436,-0.8907 -0.2531,-1.8087 -0.3453,-2.7274 -0.093,-0.937 -0.1211,-1.9222 -0.1535,-2.8881 -0.033,-0.9877 -0.036,-1.9493 -0.012,-2.9652 0.04,-1.045 0.1235,-2.096 0.2275,-3.1657 0.107,-1.0886 0.2652,-2.2243 0.4202,-3.326 0.1518,-1.1005 0.3253,-2.2095 0.5083,-3.3189 0.1916,-1.0999 0.3868,-2.2064 0.5968,-3.3118 0.2091,-1.0882 0.4452,-2.165 0.6818,-3.2597 0.2368,-1.0785 0.3035,-1.3028 0.5617,-2.3854 0.2471,-1.0557 0.6995,-2.4412 0.9698,-3.5009 0.2647,-1.0363 0.9403,-2.8382 1.5703,-4.7773 0.6017,-1.2845 0.7624,-2.3616 1.2121,-4.7635 0.1781,-3.6351 -1.4602,-6.351 -1.741,-7.7556 l -4.5642,-8.5089 c -0.5397,-0.9334 0.4941,-1.486 0.9378,-1.4412 z"
       id="path4433-4-7-4-5-38-9"
       inkscape:connector-curvature="0"
       sodipodi:nodetypes="cccccccccccccccccccccccccccccccccccccccccccccccccccccccccccccccccccccccccccccccccccccccccccc" />
    <path
       style="fill:#b2d060;fill-opacity:1;fill-rule:nonzero;stroke:none"
       d="m 673.02902,2534.8665 c 0.9914,0.5096 0.5659,0.2574 1.3282,0.785 0.7852,0.6492 1.4831,1.2883 2.1777,1.9898 0.6935,0.7009 1.3711,1.3969 2.0408,2.1104 0.6978,0.7333 1.4008,1.5215 2.0826,2.2622 0.6975,0.7579 1.4086,1.493 2.0832,2.2627 0.6974,0.7835 1.3614,1.5711 2.0429,2.3594 0.6843,0.8068 1.3722,1.6476 2.0318,2.4635 0.6698,0.8277 1.3495,1.6253 2.0014,2.4592 0.6522,0.8435 1.2749,1.698 1.899,2.549 0.6221,0.8559 1.2499,1.7412 1.8305,2.6088 0.5689,0.8536 1.1449,1.7102 1.6493,2.5792 0.4892,0.8431 0.9269,1.6406 1.3503,2.4951 0.4123,0.8378 0.776,1.7215 1.127,2.5655 0.3431,0.828 0.6925,1.6407 0.9834,2.4711 0.2832,0.8159 0.5356,1.6553 0.768,2.4722 0.2294,0.8001 0.4549,1.5815 0.6547,2.3823 0.197,0.7839 0.3997,1.5841 0.5637,2.3672 0.1589,0.7614 0.2693,1.509 0.3907,2.2683 0.1185,0.7429 0.2313,1.4797 0.3037,2.2182 0.077,0.7291 0.1501,1.4396 0.1826,2.1644 0.037,0.7102 0.064,1.4739 0.065,2.179 -0.01,0.6874 -0.025,1.3342 -0.069,2.0147 -0.048,0.6697 -0.061,1.3409 -0.1317,2.0052 -0.074,0.6556 -0.17,1.3356 -0.285,1.9805 -0.1068,0.6337 -0.2622,1.2327 -0.4249,1.8508 -0.1579,0.6069 -0.3702,1.2 -0.5721,1.7919 -0.2126,0.57 -0.4084,1.1498 -0.655,1.707 -0.2395,0.5304 -0.5114,1.0573 -0.7641,1.5823 -0.2379,0.4835 -0.4572,0.9745 -0.7181,1.4475 -0.246,0.4276 -0.4874,0.8102 -0.7548,1.2288 -0.2392,0.3801 -0.4815,0.791 -0.7471,1.1584 -0.2444,0.3285 -0.4884,0.6648 -0.7572,0.9793 -0.2486,0.2821 -0.4988,0.5691 -0.7723,0.8344 -0.2357,0.2385 -0.5176,0.4596 -0.756,0.6951 -0.2255,0.1936 -0.4384,0.4192 -0.683,0.6015 -0.2194,0.1516 -0.4254,0.2513 -0.6602,0.3901 -0.1992,0.112 -0.434,0.2283 -0.6523,0.3204 -0.178,0.081 -0.3255,0.1758 -0.5195,0.2356 -0.1616,0.048 -0.3383,0.057 -0.5036,0.096 -0.1472,0.03 -0.2947,0.083 -0.443,0.1066 -0.036,-0.018 -0.059,3e-4 -0.092,-0.021 -0.1239,0.056 -0.2542,0.1155 -0.3864,0.1507 -0.1215,0.027 -0.2255,0.061 -0.3485,0.086 -0.1088,0.024 -0.235,0.038 -0.3446,0.049 -0.1355,-0.075 -0.2227,-0.1143 -0.3212,-0.1595 -0.097,0.097 -0.1916,0.1935 -0.3161,0.3388 -0.1382,0.065 -0.2823,0.1176 -0.4209,0.1807 -0.1142,0.044 -0.2391,0.079 -0.3523,0.1215 l -0.045,-0.15 c -0.069,0.025 -0.1309,0.047 -0.1932,0.077 -0.1209,0.038 -0.2313,0.09 -0.3526,0.1202 -0.1449,0.042 -0.2926,0.021 -0.4355,0.036 -0.1715,0.031 -0.3642,0.052 -0.53,0.056 -0.1974,0.011 -0.3905,0 -0.5825,-0.026 -0.2174,-0.034 -0.3925,-0.085 -0.6008,-0.1332 -0.2299,-0.077 -0.4846,-0.1478 -0.7139,-0.2233 -0.2628,-0.078 -0.5489,-0.1766 -0.801,-0.2726 -0.2763,-0.1122 -0.5001,-0.2004 -0.763,-0.3371 -0.29,-0.1519 -0.5867,-0.3584 -0.8639,-0.5315 -0.3064,-0.1885 -0.5657,-0.3598 -0.8598,-0.5669 -0.3203,-0.2307 -0.6532,-0.5134 -0.9611,-0.7605 -0.3313,-0.2715 -0.6634,-0.5205 -0.9877,-0.8007 -0.3378,-0.2957 -0.6487,-0.6557 -0.9677,-0.9756 -0.3161,-0.3438 -0.6385,-0.6368 -0.9363,-1.0017 -0.3016,-0.3753 -0.6115,-0.767 -0.8805,-1.1782 -0.2813,-0.4121 -0.5222,-0.8603 -0.777,-1.3 -0.2555,-0.4477 -0.528,-0.9402 -0.7652,-1.4043 -0.2431,-0.4704 -0.4492,-0.9347 -0.6706,-1.4249 -0.2235,-0.5057 -0.4277,-0.9995 -0.6286,-1.5244 -0.2044,-0.5347 -0.3729,-1.099 -0.5525,-1.6544 -0.185,-0.5608 -0.3583,-1.1358 -0.514,-1.7195 -0.159,-0.5953 -0.3056,-1.2017 -0.4417,-1.8139 -0.1389,-0.6308 -0.2519,-1.2639 -0.3694,-1.9093 -0.1203,-0.6573 -0.2553,-1.3441 -0.3575,-2.0135 -0.1082,-0.6825 -0.1877,-1.3656 -0.259,-2.0692 -0.075,-0.7173 -0.1176,-1.4559 -0.1528,-2.1937 -0.04,-0.7521 -0.024,-1.5408 -0.011,-2.3135 0.01,-0.7907 0.034,-1.5588 0.083,-2.3695 0.06,-0.8328 0.1496,-1.6688 0.2539,-2.5189 0.1069,-0.8647 0.2506,-1.7652 0.3909,-2.6383 0.138,-0.8724 0.2915,-1.7511 0.4511,-2.629 0.1655,-0.8702 0.3334,-1.7457 0.5117,-2.6196 0.177,-0.86 0.3723,-1.7098 0.5684,-2.5744 0.1958,-0.8509 0.2485,-1.0271 0.459,-1.8806 0.2022,-0.8326 0.555,-1.9196 0.7732,-2.7544 0.2135,-0.8162 0.7327,-2.2261 1.2247,-3.7478 0.4524,-0.9998 0.5957,-1.8531 0.9784,-3.7521 0.2345,-2.8962 -0.805,-5.137 -0.9542,-6.2713 l -2.8667,-6.9956 c -0.3414,-0.7692 0.3846,-1.1653 0.6875,-1.1101 z"
       id="path4433-4-7-4-5-38-2-3"
       inkscape:connector-curvature="0"
       sodipodi:nodetypes="cccccccccccccccccccccccccccccccccccccccccccccccccccccccccccccccccccccccccccccccccccccccccccc" />
  </g>
</svg>
