<?xml version="1.0" encoding="UTF-8" standalone="no"?>
<!-- Created with Inkscape (http://www.inkscape.org/) -->

<svg
   xmlns:dc="http://purl.org/dc/elements/1.1/"
   xmlns:cc="http://creativecommons.org/ns#"
   xmlns:rdf="http://www.w3.org/1999/02/22-rdf-syntax-ns#"
   xmlns:svg="http://www.w3.org/2000/svg"
   xmlns="http://www.w3.org/2000/svg"
   xmlns:sodipodi="http://sodipodi.sourceforge.net/DTD/sodipodi-0.dtd"
   xmlns:inkscape="http://www.inkscape.org/namespaces/inkscape"
   width="26.560488"
   height="84.054413"
   id="svg2"
   version="1.1"
   inkscape:version="0.48.4 r9939"
   sodipodi:docname="New document 1">
  <defs
     id="defs4" />
  <sodipodi:namedview
     id="base"
     pagecolor="#ffffff"
     bordercolor="#666666"
     borderopacity="1.0"
     inkscape:pageopacity="0.0"
     inkscape:pageshadow="2"
     inkscape:zoom="0.35"
     inkscape:cx="13.994485"
     inkscape:cy="-37.972778"
     inkscape:document-units="px"
     inkscape:current-layer="layer1"
     showgrid="false"
     fit-margin-top="0"
     fit-margin-left="0"
     fit-margin-right="0"
     fit-margin-bottom="0"
     inkscape:window-width="463"
     inkscape:window-height="423"
     inkscape:window-x="75"
     inkscape:window-y="75"
     inkscape:window-maximized="0" />
  <metadata
     id="metadata7">
    <rdf:RDF>
      <cc:Work
         rdf:about="">
        <dc:format>image/svg+xml</dc:format>
        <dc:type
           rdf:resource="http://purl.org/dc/dcmitype/StillImage" />
        <dc:title></dc:title>
      </cc:Work>
    </rdf:RDF>
  </metadata>
  <g
     inkscape:label="Layer 1"
     inkscape:groupmode="layer"
     id="layer1"
     transform="translate(-361.00551,-410.33499)">
    <g
       id="g9733"
       transform="matrix(0.62497289,-0.00730614,0.00730614,0.62497289,-2850.6317,-1347.8383)"
       inkscape:transform-center-x="-5.9170177"
       inkscape:transform-center-y="-35.68804">
      <path
         sodipodi:nodetypes="ccccccccccccccccccccccc"
         style="fill:#5a711f;fill-opacity:1;fill-rule:nonzero;stroke:none"
         d="m 5138.9145,2873.2749 -4.3922,0.7798 c 1.2129,2.711 2.0849,5.5397 2.8235,8.3913 l -0.1567,0 c -3.572,1.8059 -6.2475,4.6663 -8.8236,7.5373 -5.9634,6.6706 -9.7313,14.5914 -13.02,22.6493 -4.9663,12.9225 -7.6336,26.4462 -9.5296,40.026 -1.3104,11.5831 -1.9993,23.2529 -1.804,34.9022 0.5058,3.9432 0.026,8.6702 2.5492,12.1414 -0.7072,1.858 -1.2089,3.7648 -1.2158,5.7553 0.4313,1.481 0.061,0.8636 1.098,1.9307 l 2.7453,-0.3342 c 1.3147,-1.3122 0.7067,-0.5627 1.6861,-2.1907 2.2465,-4.9739 3.6317,-10.3044 6.5883,-15.0004 4.8358,-8.6566 10.1522,-17.0767 15.1377,-25.6569 5.1479,-9.231 9.9482,-18.7199 12.1962,-28.9983 1.9469,-9.3792 3.029,-18.8779 2.1962,-28.4417 -0.6528,-7.4385 -1.6388,-14.8478 -3.6079,-22.0923 -0.1501,-0.5338 -0.3138,-1.064 -0.4706,-1.5965 0.027,-0.012 0.052,-0.026 0.079,-0.036 l -0.079,0 c -0.993,-3.3684 -2.1616,-6.7042 -4.0001,-9.7652 z"
         id="path3032-8-7-6"
         inkscape:connector-curvature="0" />
      <path
         sodipodi:nodetypes="ccccccccccccccccccccccc"
         style="fill:#adcf4f;fill-opacity:1;fill-rule:nonzero;stroke:none"
         d="m 5138.8452,2882.0397 -3.4055,0.5432 c 0.865,2.2831 1.4641,4.6557 1.9598,7.0442 l -0.1208,0 c -2.7995,1.4161 -4.9355,3.7304 -6.9951,6.0557 -4.7681,5.4035 -7.8763,11.8989 -10.6189,18.5199 -4.161,10.6251 -6.5656,21.8052 -8.3773,33.0504 -1.3088,9.5991 -2.1407,19.2852 -2.2905,28.9752 0.288,3.2906 -0.2044,7.2093 1.6514,10.1556 -0.593,1.528 -1.0288,3.1013 -1.0854,4.756 0.2941,1.2417 0.024,0.7196 0.7964,1.6315 l 2.1245,-0.2123 c 1.0471,-1.0594 0.5592,-0.4509 1.3562,-1.7809 1.8597,-4.0818 3.0647,-8.4804 5.4646,-12.3143 3.9504,-7.0813 8.265,-13.955 12.3287,-20.9696 4.2059,-7.5518 8.1503,-15.3262 10.148,-23.8181 1.7426,-7.7514 2.8215,-15.623 2.4264,-23.5944 -0.3112,-6.2003 -0.8801,-12.384 -2.2109,-18.4543 -0.1023,-0.4475 -0.2145,-0.8921 -0.3216,-1.3387 0.02,-0.011 0.041,-0.02 0.062,-0.028 l -0.061,0 c -0.6784,-2.8243 -1.493,-5.6257 -2.8311,-8.2146 z"
         id="path3032-8-7-6-1"
         inkscape:connector-curvature="0" />
      <path
         inkscape:connector-curvature="0"
         d="m 5137.9323,2901.2899 c 0.012,0.1002 0,0.1916 -0.022,0.289 -0.023,0.1348 -0.055,0.2673 -0.085,0.4006 -0.043,0.1753 -0.098,0.3468 -0.1524,0.5184 -0.076,0.2124 -0.1417,0.4282 -0.2116,0.6426 -0.084,0.2627 -0.1958,0.5153 -0.2869,0.7754 -0.111,0.3088 -0.2499,0.6066 -0.3853,0.9052 -0.1597,0.3419 -0.3094,0.6884 -0.4634,1.0328 -0.1779,0.3925 -0.3543,0.7857 -0.5473,1.1711 -0.2181,0.44 -0.4596,0.8676 -0.6958,1.2979 -0.2583,0.4666 -0.515,0.9337 -0.7803,1.3964 -0.2905,0.4963 -0.5907,0.9868 -0.8838,1.4815 -0.3193,0.525 -0.6384,1.0501 -0.9549,1.5768 -0.3417,0.5679 -0.6755,1.1406 -1.0081,1.714 -0.3522,0.6096 -0.7023,1.2205 -1.0505,1.8325 -0.3586,0.6322 -0.7133,1.2666 -1.0673,1.9014 -0.357,0.6416 -0.7124,1.2841 -1.0625,1.9296 -0.3569,0.6597 -0.7121,1.3205 -1.0677,1.9809 -0.3668,0.6887 -0.7123,1.3886 -1.0472,2.0934 -0.3517,0.7367 -0.6741,1.4866 -0.9853,2.2411 -0.3088,0.7704 -0.5943,1.5496 -0.8783,2.3295 -0.2683,0.7823 -0.5373,1.5644 -0.8009,2.3483 -0.2631,0.7835 -0.5212,1.5685 -0.7777,2.3542 -0.2562,0.7811 -0.5,1.566 -0.7441,2.3509 -0.244,0.7825 -0.4756,1.5688 -0.7059,2.3554 -0.2313,0.7921 -0.4514,1.5873 -0.6698,2.3828 -0.2167,0.7919 -0.4277,1.5853 -0.6348,2.3798 -0.2032,0.7777 -0.3956,1.5582 -0.5866,2.3391 -0.188,0.7739 -0.3666,1.5502 -0.5419,2.3271 -0.1699,0.7668 -0.3375,1.534 -0.4948,2.3033 -0.1595,0.7713 -0.3005,1.5462 -0.4374,2.3218 -0.1404,0.7933 -0.2668,1.589 -0.3856,2.3859 -0.1159,0.8114 -0.2227,1.6242 -0.3235,2.4376 -0.1012,0.8209 -0.1872,1.6434 -0.2653,2.4667 -0.078,0.8189 -0.1358,1.6393 -0.1856,2.4602 -0.053,0.8035 -0.086,1.608 -0.1249,2.4122 -0.036,0.7778 -0.059,1.5561 -0.093,2.3339 -0.032,0.7512 -0.063,1.5023 -0.094,2.2534 -0.032,0.7239 -0.041,1.4485 -0.1237,2.1687 -0.08,0.8662 -0.409,1.2194 -1.0974,1.7103 0,0 -0.068,-5e-4 -0.068,-5e-4 l 0,0 c -0.6478,-0.513 -0.9278,-0.8691 -0.9394,-1.7183 -0.026,-0.7237 0.025,-1.4459 0.052,-2.1691 0.031,-0.7515 0.067,-1.5027 0.1013,-2.2541 0.035,-0.7784 0.081,-1.5563 0.1181,-2.3347 0.039,-0.8055 0.086,-1.6107 0.1363,-2.4156 0.056,-0.8226 0.1137,-1.6453 0.1897,-2.4664 0.078,-0.8254 0.1645,-1.65 0.2652,-2.4729 0.1002,-0.8153 0.2049,-1.6302 0.326,-2.4429 0.1185,-0.7983 0.24,-1.5964 0.3781,-2.3916 0.1365,-0.7777 0.2818,-1.5538 0.4399,-2.3274 0.1573,-0.771 0.318,-1.5412 0.4956,-2.3077 0.1756,-0.7782 0.3544,-1.5557 0.5425,-2.331 0.1911,-0.7822 0.3886,-1.5628 0.5908,-2.3422 0.2075,-0.7954 0.419,-1.5896 0.6357,-2.3825 0.2186,-0.7969 0.4411,-1.593 0.6729,-2.3862 0.2303,-0.7881 0.4667,-1.5744 0.7094,-2.3589 0.2442,-0.7862 0.4944,-1.5705 0.7478,-2.3538 0.2571,-0.7883 0.5194,-1.5749 0.7949,-2.3571 0.2777,-0.7869 0.5564,-1.5736 0.8614,-2.3506 0.2916,-0.7835 0.5871,-1.5659 0.9119,-2.3365 0.3173,-0.7578 0.6492,-1.5097 1.0039,-2.2508 0.3408,-0.7079 0.6894,-1.4118 1.0653,-2.1018 0.3563,-0.6643 0.7245,-1.3219 1.0897,-1.9813 0.3554,-0.6436 0.7073,-1.289 1.0656,-1.9309 0.3538,-0.6353 0.7083,-1.2703 1.0663,-1.9032 0.3476,-0.6124 0.6973,-1.2237 1.0486,-1.8341 0.3318,-0.5742 0.6645,-1.148 1.005,-1.7172 0.3153,-0.5271 0.6336,-1.0526 0.9524,-1.5777 0.3027,-0.4894 0.598,-0.9834 0.8913,-1.4786 0.2775,-0.4608 0.5587,-0.9198 0.8209,-1.3896 0.2419,-0.4296 0.4776,-0.8626 0.7192,-1.2923 0.2136,-0.3879 0.4357,-0.7709 0.6438,-1.1619 0.1834,-0.3398 0.3694,-0.6785 0.537,-1.0266 0.1478,-0.2994 0.2924,-0.6006 0.4456,-0.8974 0.1301,-0.2493 0.2367,-0.51 0.3534,-0.7657 0.093,-0.2082 0.1834,-0.417 0.2517,-0.6347 0.06,-0.1685 0.1179,-0.3375 0.1696,-0.5086 0.042,-0.1315 0.078,-0.2645 0.1192,-0.3959 0.031,-0.1013 0.065,-0.1955 0.1227,-0.2856 0,0 1.3888,0.032 1.3888,0.032 z"
         id="path9572"
         style="fill:#5a711f;fill-opacity:1;fill-rule:nonzero;stroke:none" />
    </g>
  </g>
</svg>
