<?xml version="1.0" encoding="UTF-8" standalone="no"?>
<!-- Created with Inkscape (http://www.inkscape.org/) -->

<svg
   xmlns:dc="http://purl.org/dc/elements/1.1/"
   xmlns:cc="http://creativecommons.org/ns#"
   xmlns:rdf="http://www.w3.org/1999/02/22-rdf-syntax-ns#"
   xmlns:svg="http://www.w3.org/2000/svg"
   xmlns="http://www.w3.org/2000/svg"
   xmlns:sodipodi="http://sodipodi.sourceforge.net/DTD/sodipodi-0.dtd"
   xmlns:inkscape="http://www.inkscape.org/namespaces/inkscape"
   width="9.1231127mm"
   height="26.066357mm"
   viewBox="0 0 32.32599 92.361106"
   id="svg6542"
   version="1.1"
   inkscape:version="0.91 r13725"
   sodipodi:docname="leaf.svg">
  <defs
     id="defs6544" />
  <sodipodi:namedview
     id="base"
     pagecolor="#ffffff"
     bordercolor="#666666"
     borderopacity="1.0"
     inkscape:pageopacity="0.0"
     inkscape:pageshadow="2"
     inkscape:zoom="0.35"
     inkscape:cx="-421.69415"
     inkscape:cy="-150.9623"
     inkscape:document-units="px"
     inkscape:current-layer="layer1"
     showgrid="false"
     fit-margin-top="0"
     fit-margin-left="0"
     fit-margin-right="0"
     fit-margin-bottom="0"
     inkscape:window-width="1920"
     inkscape:window-height="955"
     inkscape:window-x="0"
     inkscape:window-y="0"
     inkscape:window-maximized="1" />
  <metadata
     id="metadata6547">
    <rdf:RDF>
      <cc:Work
         rdf:about="">
        <dc:format>image/svg+xml</dc:format>
        <dc:type
           rdf:resource="http://purl.org/dc/dcmitype/StillImage" />
        <dc:title></dc:title>
      </cc:Work>
    </rdf:RDF>
  </metadata>
  <g
     inkscape:label="Layer 1"
     inkscape:groupmode="layer"
     id="layer1"
     transform="translate(-338.12272,-289.03879)">
    <g
       id="g6536"
       transform="matrix(0.68750948,0.62689255,-0.47689938,0.77188347,607.18674,-449.79625)">
      <path
         inkscape:connector-curvature="0"
         id="path6516"
         d="m 199.00339,796.96507 c 0,0 -0.2434,0.67476 -0.60075,1.81004 -0.89112,-0.47877 -1.40573,-0.72734 -1.40573,-0.72734 l 0.92164,2.33853 c -2.5517,8.85744 -7.88725,33.40361 3.95258,53.86515 10.0407,17.35238 21.97828,25.29658 28.56459,28.59888 l 1.4837,3.7634 c 0,0 0.51144,-0.8931 1.20641,-2.5331 1.43765,0.5942 2.29814,0.8454 2.29814,0.8454 l -1.35718,-3.2767 c 2.44208,-6.9531 5.50499,-20.959 0.67093,-40.41008 -5.70062,-22.938 -26.58585,-36.88296 -34.57859,-41.4829 l -1.15574,-2.79128 z"
         style="fill:#216b21;fill-opacity:1;fill-rule:evenodd;stroke:#000000;stroke-width:0.48496133px;stroke-linecap:butt;stroke-linejoin:miter;stroke-opacity:1" />
      <path
         inkscape:connector-curvature="0"
         id="path6534"
         d="m 202.88438,807.35925 c 0,0 24.90231,48.79348 25.91618,62.55408"
         style="fill:none;fill-rule:evenodd;stroke:#71a93b;stroke-width:0.48496133px;stroke-linecap:butt;stroke-linejoin:miter;stroke-opacity:1" />
    </g>
  </g>
</svg>
