<?xml version="1.0" encoding="UTF-8" standalone="no"?>
<!-- Created with Inkscape (http://www.inkscape.org/) -->

<svg
   xmlns:dc="http://purl.org/dc/elements/1.1/"
   xmlns:cc="http://creativecommons.org/ns#"
   xmlns:rdf="http://www.w3.org/1999/02/22-rdf-syntax-ns#"
   xmlns:svg="http://www.w3.org/2000/svg"
   xmlns="http://www.w3.org/2000/svg"
   xmlns:sodipodi="http://sodipodi.sourceforge.net/DTD/sodipodi-0.dtd"
   xmlns:inkscape="http://www.inkscape.org/namespaces/inkscape"
   width="47.331043"
   height="89.725197"
   id="svg2"
   version="1.1"
   inkscape:version="0.48.4 r9939"
   sodipodi:docname="leaf6.svg">
  <defs
     id="defs4" />
  <sodipodi:namedview
     id="base"
     pagecolor="#ffffff"
     bordercolor="#666666"
     borderopacity="1.0"
     inkscape:pageopacity="0.0"
     inkscape:pageshadow="2"
     inkscape:zoom="0.35"
     inkscape:cx="-288.4234"
     inkscape:cy="232.73165"
     inkscape:document-units="px"
     inkscape:current-layer="layer1"
     showgrid="false"
     fit-margin-top="0"
     fit-margin-left="0"
     fit-margin-right="0"
     fit-margin-bottom="0"
     inkscape:window-width="1600"
     inkscape:window-height="838"
     inkscape:window-x="1358"
     inkscape:window-y="142"
     inkscape:window-maximized="1" />
  <metadata
     id="metadata7">
    <rdf:RDF>
      <cc:Work
         rdf:about="">
        <dc:format>image/svg+xml</dc:format>
        <dc:type
           rdf:resource="http://purl.org/dc/dcmitype/StillImage" />
        <dc:title />
      </cc:Work>
    </rdf:RDF>
  </metadata>
  <g
     inkscape:label="Layer 1"
     inkscape:groupmode="layer"
     id="layer1"
     transform="translate(-663.42339,-2242.6223)">
    <path
       style="fill:#adcf4f;fill-opacity:1;fill-rule:nonzero;stroke:none"
       id="path4431-1-5-6-21"
       d="m 700.26099,2332.3475 c -0.015,-0.094 8e-4,-0.1881 0,-0.2815 0.022,-0.1351 0.036,-0.2711 0.048,-0.4072 0.016,-0.1814 0.032,-0.3627 0.049,-0.5442 0.011,-0.2317 0.052,-0.4608 0.085,-0.6902 0.038,-0.263 0.082,-0.5245 0.1203,-0.7875 0.037,-0.2942 0.075,-0.588 0.1157,-0.8816 0.05,-0.3362 0.089,-0.6743 0.1315,-1.0117 0.044,-0.3805 0.079,-0.7619 0.1142,-1.1432 0.037,-0.4088 0.074,-0.8176 0.1008,-1.2273 0.029,-0.4344 0.051,-0.8691 0.073,-1.3037 0.019,-0.4587 0.039,-0.9176 0.048,-1.3766 0.011,-0.4738 0.014,-0.9479 0,-1.4219 -0.01,-0.4884 -0.031,-0.9763 -0.062,-1.4638 -0.034,-0.4986 -0.078,-0.9963 -0.1257,-1.4937 -0.049,-0.4999 -0.1144,-0.9982 -0.1793,-1.4966 -0.067,-0.4995 -0.1443,-0.9976 -0.2263,-1.495 -0.085,-0.499 -0.1759,-0.9969 -0.2725,-1.4938 -0.1007,-0.4996 -0.2052,-0.9985 -0.3221,-1.4945 -0.1118,-0.4988 -0.2367,-0.9944 -0.3621,-1.4898 -0.1266,-0.4975 -0.2594,-0.9933 -0.3953,-1.4884 -0.1372,-0.4981 -0.2816,-0.9941 -0.4264,-1.4901 -0.148,-0.5026 -0.302,-1.0033 -0.4584,-1.5034 -0.1619,-0.5092 -0.329,-1.0167 -0.4973,-1.5236 -0.1736,-0.5156 -0.3455,-1.0319 -0.5231,-1.5463 -0.1767,-0.5214 -0.3573,-1.0418 -0.5409,-1.561 -0.1858,-0.5207 -0.3772,-1.0396 -0.5704,-1.5576 -0.194,-0.5212 -0.3966,-1.0389 -0.6019,-1.5556 -0.2053,-0.5159 -0.4211,-1.0276 -0.6422,-1.5368 -0.2183,-0.5062 -0.4511,-1.0058 -0.688,-1.5035 -0.2407,-0.4989 -0.4972,-0.9897 -0.7616,-1.4763 -0.2683,-0.4923 -0.5569,-0.9732 -0.8537,-1.4486 -0.3003,-0.4806 -0.6114,-0.9542 -0.9304,-1.4223 -0.3214,-0.4769 -0.66,-0.9416 -0.999,-1.4059 -0.3385,-0.4694 -0.6913,-0.9283 -1.0474,-1.3843 -0.3632,-0.4585 -0.7354,-0.9097 -1.113,-1.3562 -0.3722,-0.4448 -0.7541,-0.8813 -1.1323,-1.3211 -0.3758,-0.4293 -0.7567,-0.8543 -1.1459,-1.2718 -0.3834,-0.4149 -0.7728,-0.8244 -1.1664,-1.2297 -0.392,-0.4012 -0.7902,-0.7963 -1.191,-1.1886 -0.3982,-0.3869 -0.7978,-0.7724 -1.2019,-1.1531 -0.3903,-0.3663 -0.7868,-0.7261 -1.1698,-1.1001 -0.1323,-0.1488 -0.663,-0.692 -0.5884,-0.9119 0.03,-0.088 0.1168,-0.1436 0.1751,-0.2153 0,0 0.6397,-0.081 0.6397,-0.081 l 0,0 c 0.177,0.041 0.3577,0.067 0.5303,0.1241 0.4785,0.1552 0.8742,0.5284 1.2653,0.8257 0.3999,0.3587 0.7878,0.7309 1.1783,1.1 0.4052,0.3824 0.8104,0.7647 1.2068,1.1564 0.4006,0.3929 0.7978,0.7896 1.1865,1.1944 0.3948,0.4075 0.7891,0.8156 1.1717,1.2347 0.383,0.4235 0.7673,0.8461 1.1412,1.2777 0.3851,0.4369 0.7636,0.8794 1.1395,1.3241 0.3742,0.4505 0.7485,0.9009 1.1068,1.3643 0.3569,0.4589 0.7078,0.9226 1.0532,1.3904 0.3391,0.466 0.6707,0.9374 0.9953,1.4137 0.3152,0.4723 0.6273,0.947 0.9241,1.4312 0.2934,0.481 0.583,0.9643 0.8503,1.4606 0.2644,0.4894 0.5196,0.9838 0.7556,1.4876 0.2369,0.4997 0.4655,1.0035 0.686,1.5107 0.221,0.5114 0.437,1.0252 0.6425,1.543 0.2054,0.5182 0.4082,1.0374 0.6024,1.56 0.1935,0.5189 0.3864,1.0382 0.5685,1.5612 0.1835,0.5201 0.3641,1.0411 0.5412,1.5635 0.1731,0.5158 0.3486,1.0311 0.5188,1.5479 0.1685,0.508 0.3377,1.0159 0.4958,1.5273 0.1564,0.5012 0.309,1.0035 0.4566,1.5074 0.145,0.4967 0.285,0.9948 0.4219,1.4937 0.136,0.4964 0.269,0.9937 0.3956,1.4924 0.1256,0.497 0.2459,0.9954 0.3603,1.4951 0.1077,0.4998 0.2201,0.9987 0.3152,1.501 0.097,0.4987 0.1894,0.9983 0.2705,1.4999 0.082,0.4994 0.1594,0.9997 0.2219,1.502 0.065,0.5003 0.1214,1.0015 0.1673,1.5039 0.047,0.4999 0.084,1.0006 0.1151,1.5017 0.024,0.4911 0.048,0.9821 0.048,1.4738 -9e-4,0.4767 0,0.9538 -0.016,1.4303 -0.018,0.4609 -0.037,0.9216 -0.066,1.382 -0.026,0.4372 -0.062,0.8734 -0.1012,1.3097 -0.037,0.4103 -0.064,0.8212 -0.1111,1.2306 -0.035,0.3837 -0.081,0.7665 -0.1318,1.1485 -0.042,0.3403 -0.092,0.6797 -0.148,1.018 -0.051,0.2962 -0.1067,0.5914 -0.1684,0.8854 -0.051,0.2634 -0.098,0.5274 -0.1536,0.7899 -0.048,0.231 -0.096,0.4619 -0.1566,0.6897 -0.041,0.1817 -0.074,0.3653 -0.1176,0.5465 -0.034,0.1381 -0.066,0.2766 -0.1017,0.4143 -0.035,0.097 -0.061,0.1954 -0.1142,0.2831 0,0 -1.4629,0.036 -1.4629,0.036 z"
       inkscape:connector-curvature="0" />
    <path
       style="fill:#759026;fill-opacity:1;fill-rule:nonzero;stroke:none"
       d="m 671.10399,2242.6293 c 1.2261,0.3139 0.6573,0.1349 1.6209,0.5151 1.0085,0.5019 1.9518,1.0369 2.8636,1.6117 0.9105,0.5749 1.7977,1.1536 2.6826,1.7458 0.9218,0.6062 1.8482,1.249 2.7509,1.8674 0.9229,0.6329 1.8509,1.2533 2.753,1.8983 0.9276,0.6589 1.8468,1.3254 2.7572,1.9922 0.9164,0.6845 1.8091,1.3904 2.6992,2.0891 0.9021,0.7102 1.8187,1.3998 2.7009,2.1204 0.883,0.732 1.731,1.4716 2.5805,2.2199 0.8516,0.7491 1.716,1.5153 2.5213,2.2855 0.7896,0.7581 1.5861,1.5087 2.3027,2.2961 0.6957,0.7647 1.3379,1.523 1.9595,2.313 0.6054,0.7746 1.1765,1.5933 1.7126,2.3879 0.5249,0.7789 1.0267,1.5424 1.4912,2.3359 0.4526,0.7797 0.8786,1.555 1.2728,2.3467 0.3885,0.7751 0.794,1.5713 1.1479,2.353 0.3485,0.7653 0.6471,1.5284 0.9575,2.2995 0.2997,0.7505 0.6036,1.4861 0.8607,2.2417 0.2526,0.7395 0.4769,1.5057 0.6736,2.251 0.2005,0.7347 0.3936,1.4564 0.5458,2.1948 0.1494,0.7244 0.3147,1.4744 0.4207,2.2006 0.1002,0.7091 0.1754,1.4062 0.2295,2.1164 0.055,0.6989 0.1141,1.3907 0.1354,2.0896 0.014,0.6907 0.02,1.4087 -0.022,2.0972 -0.033,0.6754 -0.1216,1.3108 -0.2157,1.9819 -0.092,0.6575 -0.2289,1.337 -0.3718,1.9891 -0.1595,0.6321 -0.3026,1.2447 -0.5029,1.8708 -0.1959,0.5969 -0.4201,1.1891 -0.632,1.7831 -0.2013,0.5485 -0.4443,1.1151 -0.6718,1.6588 -0.2151,0.494 -0.4043,0.9525 -0.6491,1.4397 -0.2195,0.4426 -0.4328,0.9133 -0.6849,1.3478 -0.2328,0.3896 -0.462,0.7809 -0.7254,1.1618 -0.2444,0.3433 -0.4915,0.674 -0.764,1.0073 -0.2355,0.2968 -0.5334,0.5862 -0.7703,0.8826 -0.2284,0.2505 -0.4272,0.4835 -0.6843,0.7216 -0.2319,0.202 -0.4715,0.406 -0.7216,0.5986 -0.2144,0.1567 -0.4598,0.2993 -0.698,0.441 -0.1951,0.1192 -0.3918,0.2711 -0.6073,0.3741 -0.179,0.082 -0.3361,0.1371 -0.5215,0.2132 -0.1677,0.056 -0.3533,0.1574 -0.5215,0.2132 -0.634,-0.1175 -0.9788,-0.166 -1.253,-0.032 -0.2565,0.1251 -0.4253,0.3836 -0.7404,0.8498 -0.1508,0.093 -0.3365,0.1815 -0.4872,0.2743 -0.177,0.093 -0.3398,0.1917 -0.5183,0.2755 -0.2162,0.1023 -0.4295,0.1465 -0.6462,0.2196 -0.2614,0.093 -0.5435,0.1937 -0.801,0.2583 -0.3082,0.069 -0.5956,0.1198 -0.8989,0.1693 -0.3477,0.045 -0.6586,0.065 -0.9974,0.08 -0.3793,-0.01 -0.8104,0 -1.1891,-0.01 -0.431,0 -0.8654,-0.035 -1.2859,-0.062 -0.4616,-0.037 -0.8738,-0.08 -1.3216,-0.1539 -0.4955,-0.083 -1.0063,-0.2198 -1.487,-0.3339 -0.5314,-0.122 -1.0037,-0.2451 -1.5211,-0.3946 -0.5645,-0.17 -1.1356,-0.3794 -1.6864,-0.5741 -0.5928,-0.2158 -1.1985,-0.4023 -1.7832,-0.632 -0.6107,-0.2434 -1.1744,-0.5714 -1.7626,-0.8522 -0.5938,-0.3055 -1.2026,-0.5965 -1.7674,-0.9458 -0.5763,-0.3557 -1.142,-0.7321 -1.6829,-1.1376 -0.5562,-0.4077 -1.0745,-0.8462 -1.5966,-1.2982 -0.5259,-0.4611 -1.0703,-0.9674 -1.573,-1.4561 -0.512,-0.495 -0.9983,-0.9957 -1.4828,-1.5228 -0.4914,-0.5453 -0.9341,-1.1061 -1.3968,-1.6837 -0.4708,-0.5884 -0.9043,-1.2194 -1.3418,-1.8426 -0.4479,-0.6274 -0.8758,-1.2731 -1.284,-1.9395 -0.4173,-0.6807 -0.8117,-1.3906 -1.1981,-2.1001 -0.3956,-0.7311 -0.7751,-1.471 -1.1417,-2.2281 -0.3756,-0.7713 -0.7361,-1.5623 -1.0855,-2.3559 -0.3579,-0.8086 -0.6869,-1.6393 -0.9979,-2.4853 -0.3143,-0.864 -0.6161,-1.7463 -0.8807,-2.6476 -0.2695,-0.9198 -0.493,-1.8832 -0.7027,-2.8439 -0.2114,-0.9829 -0.3773,-1.9541 -0.5216,-2.9782 -0.1486,-1.054 -0.2353,-2.1466 -0.3153,-3.2383 -0.082,-1.1111 -0.1358,-2.2684 -0.1664,-3.4023 -0.033,-1.1315 -0.042,-2.2613 -0.042,-3.4081 0.01,-1.1388 0.052,-2.2981 0.081,-3.4459 0.03,-1.1311 0.057,-2.2422 0.1158,-3.3846 0.063,-1.1267 0.1554,-2.2559 0.2403,-3.3908 0.078,-1.1057 0.1706,-2.2467 0.273,-3.3611 0.1,-1.0895 0.2166,-2.2051 0.3387,-3.3018 0.1091,-1.0588 0.238,-2.1107 0.3759,-3.1787 0.139,-1.0688 0.3046,-2.1221 0.5616,-3.2187 0.3225,-0.9847 0.1311,-0.4534 0.6731,-1.5971 0.2276,-0.3037 0.4774,-0.5506 0.7738,-0.7901 1.1796,-0.9424 2.8486,-1.3977 4.246,-1.4596 z"
       id="path4433-7-7-1-1-6"
       inkscape:connector-curvature="0" />
    <path
       style="fill:#b2d060;fill-opacity:1;fill-rule:nonzero;stroke:none"
       d="m 674.76879,2248.5998 c 1.0642,0.306 0.6036,0.1453 1.4376,0.5 0.871,0.4582 1.6525,0.9202 2.4374,1.4374 0.784,0.517 1.5513,1.0318 2.3126,1.5626 0.7924,0.5448 1.5987,1.1332 2.375,1.6874 0.7941,0.5667 1.6003,1.1105 2.375,1.6876 0.7974,0.5891 1.5615,1.1864 2.3437,1.7812 0.7869,0.6111 1.5804,1.2524 2.3437,1.875 0.774,0.6317 1.5556,1.2352 2.3126,1.875 0.7569,0.6496 1.491,1.3064 2.2187,1.9688 0.7292,0.6635 1.468,1.3517 2.1563,2.0312 0.6748,0.6691 1.3577,1.3394 1.9687,2.0312 0.593,0.6713 1.1286,1.3093 1.6563,2 0.5141,0.6771 0.9844,1.4022 1.4374,2.0938 0.4433,0.6785 0.8908,1.3428 1.2813,2.0312 0.3807,0.6762 0.7332,1.3779 1.0625,2.0626 0.3247,0.6703 0.6431,1.3252 0.9375,2 0.29,0.6608 0.5872,1.3353 0.8437,2 0.2472,0.6466 0.4459,1.2878 0.6563,1.9374 0.2066,0.636 0.4044,1.2676 0.5625,1.9063 0.1595,0.6304 0.3184,1.2437 0.4375,1.875 0.116,0.6196 0.2332,1.2866 0.3125,1.9063 0.075,0.6048 0.1269,1.1762 0.1562,1.7812 0.035,0.595 0.089,1.1872 0.094,1.7812 4e-4,0.5866 -0.019,1.198 -0.062,1.7813 -0.037,0.5721 -0.1249,1.1211 -0.2187,1.6875 -0.091,0.5557 -0.238,1.1074 -0.375,1.6562 -0.1505,0.5317 -0.2826,1.0692 -0.4688,1.5938 -0.1822,0.5004 -0.3978,1.0026 -0.5938,1.5 -0.1859,0.4589 -0.3519,0.9216 -0.5624,1.375 -0.2007,0.4107 -0.4019,0.7816 -0.625,1.1875 -0.199,0.3684 -0.3976,0.7643 -0.625,1.125 -0.211,0.323 -0.4192,0.6544 -0.6563,0.9687 -0.2189,0.2843 -0.4417,0.5708 -0.6875,0.8438 -0.2104,0.2443 -0.4759,0.4744 -0.6875,0.7188 -0.2038,0.2055 -0.3965,0.4309 -0.625,0.625 -0.2053,0.1647 -0.4028,0.282 -0.625,0.4374 -0.1895,0.1262 -0.4141,0.2627 -0.625,0.375 -0.172,0.095 -0.31,0.2011 -0.5,0.2813 -0.1581,0.064 -0.337,0.097 -0.5,0.1563 -0.1475,0.041 -0.2897,0.114 -0.4375,0.1562 -0.039,-0.01 -0.057,0.01 -0.094,0 -0.1195,0.065 -0.2449,0.1362 -0.375,0.1875 -0.1194,0.042 -0.2219,0.084 -0.3437,0.125 -0.1102,0.027 -0.2339,0.066 -0.3437,0.094 -0.1464,-0.046 -0.239,-0.069 -0.3438,-0.094 -0.086,0.1013 -0.1725,0.1971 -0.2812,0.3437 -0.1329,0.076 -0.273,0.1443 -0.4063,0.2188 -0.1112,0.054 -0.2335,0.1035 -0.3437,0.1562 l -0.063,-0.125 c -0.067,0.031 -0.1268,0.061 -0.1874,0.094 -0.1182,0.051 -0.2253,0.1109 -0.3438,0.1562 -0.1425,0.058 -0.2954,0.056 -0.4375,0.094 -0.1719,0.046 -0.3634,0.097 -0.5313,0.125 -0.2001,0.032 -0.3968,0.053 -0.5937,0.062 -0.2246,0 -0.4078,-0.017 -0.625,-0.031 -0.2419,-0.033 -0.5086,-0.06 -0.75,-0.094 -0.2752,-0.03 -0.5769,-0.077 -0.8437,-0.125 -0.293,-0.058 -0.5305,-0.1049 -0.8126,-0.1875 -0.3119,-0.092 -0.6367,-0.231 -0.9374,-0.3438 -0.3327,-0.1216 -0.6154,-0.2351 -0.9376,-0.375 -0.3513,-0.1575 -0.7214,-0.3579 -1.0624,-0.5312 -0.3671,-0.1912 -0.7326,-0.3623 -1.0938,-0.5625 -0.3766,-0.2116 -0.7333,-0.4829 -1.0938,-0.7187 -0.3626,-0.2534 -0.7205,-0.4684 -1.0624,-0.75 -0.3486,-0.287 -0.7079,-0.5873 -1.0313,-0.9063 -0.3331,-0.3214 -0.6283,-0.6815 -0.9375,-1.0313 -0.3107,-0.3566 -0.643,-0.7512 -0.9375,-1.125 -0.3001,-0.3788 -0.5628,-0.757 -0.8437,-1.1562 -0.2843,-0.4125 -0.5483,-0.8173 -0.8126,-1.25 -0.2687,-0.4407 -0.5042,-0.9126 -0.75,-1.375 -0.252,-0.4662 -0.4941,-0.947 -0.7187,-1.4375 -0.2299,-0.5007 -0.448,-1.0125 -0.6563,-1.5313 -0.2129,-0.5343 -0.4008,-1.0745 -0.5937,-1.625 -0.1984,-0.5605 -0.4131,-1.1445 -0.5937,-1.7187 -0.1883,-0.5841 -0.3471,-1.1732 -0.5,-1.7813 -0.1541,-0.6207 -0.2863,-1.2628 -0.4063,-1.9062 -0.1214,-0.6563 -0.2005,-1.3507 -0.2813,-2.0312 -0.083,-0.6958 -0.1421,-1.3749 -0.1874,-2.0938 -0.037,-0.7407 -0.04,-1.4882 -0.031,-2.25 0.01,-0.7755 0.052,-1.5872 0.094,-2.375 0.04,-0.7864 0.095,-1.5802 0.1563,-2.375 0.068,-0.7884 0.1382,-1.5816 0.2187,-2.375 0.081,-0.7814 0.1817,-1.5563 0.2813,-2.3438 0.101,-0.7761 0.1344,-0.9385 0.25,-1.7187 0.1097,-0.7607 0.1556,-1.7038 0.2813,-2.4688 0.1228,-0.7478 0.4251,-1.8112 0.8124,-2.6562 0.3444,-0.9434 0.9546,-2.2763 0.75,-4.3124 -0.094,-2.5788 -1.4059,-4.3996 -1.6874,-5.3751 l -3.711,-5.7383 c -0.4345,-0.6272 0.2569,-1.0792 0.5703,-1.0741 z"
       id="path4433-4-7-4-8"
       inkscape:connector-curvature="0"
       sodipodi:nodetypes="cccccccccccccccccccccccccccccccccccccccccccccccccccccccccccccccccccccccccccccccccccccccccccc" />
  </g>
</svg>
