<?xml version="1.0" encoding="UTF-8" standalone="no"?>
<!-- Created with Inkscape (http://www.inkscape.org/) -->

<svg
   xmlns:dc="http://purl.org/dc/elements/1.1/"
   xmlns:cc="http://creativecommons.org/ns#"
   xmlns:rdf="http://www.w3.org/1999/02/22-rdf-syntax-ns#"
   xmlns:svg="http://www.w3.org/2000/svg"
   xmlns="http://www.w3.org/2000/svg"
   xmlns:sodipodi="http://sodipodi.sourceforge.net/DTD/sodipodi-0.dtd"
   xmlns:inkscape="http://www.inkscape.org/namespaces/inkscape"
   width="49.073563"
   height="96.608727"
   id="svg2"
   version="1.1"
   inkscape:version="0.48.4 r9939"
   sodipodi:docname="leaf5.svg">
  <defs
     id="defs4" />
  <sodipodi:namedview
     id="base"
     pagecolor="#ffffff"
     bordercolor="#666666"
     borderopacity="1.0"
     inkscape:pageopacity="0.0"
     inkscape:pageshadow="2"
     inkscape:zoom="0.35"
     inkscape:cx="-90.040158"
     inkscape:cy="731.76011"
     inkscape:document-units="px"
     inkscape:current-layer="layer1"
     showgrid="false"
     fit-margin-top="0"
     fit-margin-left="0"
     fit-margin-right="0"
     fit-margin-bottom="0"
     inkscape:window-width="1600"
     inkscape:window-height="838"
     inkscape:window-x="1358"
     inkscape:window-y="142"
     inkscape:window-maximized="1" />
  <metadata
     id="metadata7">
    <rdf:RDF>
      <cc:Work
         rdf:about="">
        <dc:format>image/svg+xml</dc:format>
        <dc:type
           rdf:resource="http://purl.org/dc/dcmitype/StillImage" />
        <dc:title />
      </cc:Work>
    </rdf:RDF>
  </metadata>
  <g
     inkscape:label="Layer 1"
     inkscape:groupmode="layer"
     id="layer1"
     transform="translate(-465.04015,-1191.7993)">
    <g
       id="g4481"
       transform="matrix(0.6309282,-0.77584122,0.77584122,0.6309282,-6161.3478,2798.6114)"
       inkscape:transform-center-x="-24.536781"
       inkscape:transform-center-y="21.173657">
      <path
         inkscape:connector-curvature="0"
         d="m 5380.3202,4222.4627 c 0.063,-0.071 0.1465,-0.118 0.2205,-0.1751 0.1188,-0.068 0.2327,-0.1434 0.3461,-0.2198 0.151,-0.1017 0.3017,-0.2038 0.4532,-0.3052 0.1866,-0.1378 0.3901,-0.2507 0.5893,-0.3692 0.2279,-0.1366 0.459,-0.267 0.6869,-0.4035 0.2513,-0.1573 0.5036,-0.3127 0.757,-0.4665 0.2927,-0.173 0.5793,-0.3564 0.8679,-0.5363 0.3232,-0.2056 0.6408,-0.4195 0.959,-0.6326 0.3405,-0.2293 0.6809,-0.4586 1.0158,-0.6962 0.3554,-0.2514 0.7066,-0.5085 1.0572,-0.7663 0.3681,-0.2744 0.7363,-0.5489 1.0983,-0.8313 0.3743,-0.2907 0.7444,-0.587 1.1063,-0.8933 0.3738,-0.3144 0.7378,-0.64 1.0964,-0.9717 0.3652,-0.3412 0.7237,-0.6893 1.0796,-1.04 0.3568,-0.3536 0.7023,-0.7185 1.048,-1.0833 0.3455,-0.3669 0.6829,-0.7414 1.0171,-1.1188 0.3337,-0.3806 0.6625,-0.7655 0.987,-1.1539 0.3241,-0.3934 0.6453,-0.7892 0.9563,-1.1929 0.3165,-0.4014 0.6222,-0.811 0.9274,-1.2209 0.3061,-0.4121 0.607,-0.8279 0.9053,-1.2457 0.3,-0.4207 0.5937,-0.8457 0.8871,-1.2709 0.2966,-0.432 0.5879,-0.8674 0.8772,-1.3043 0.2929,-0.4468 0.5812,-0.8967 0.8683,-1.3471 0.2905,-0.4599 0.5826,-0.919 0.8696,-1.3814 0.2931,-0.4661 0.5829,-0.9345 0.8699,-1.4045 0.2867,-0.4727 0.5685,-0.9486 0.8485,-1.4253 0.282,-0.4793 0.5558,-0.9632 0.8272,-1.4485 0.2707,-0.4847 0.5315,-0.975 0.7871,-1.4678 0.255,-0.4887 0.4957,-0.9846 0.7324,-1.4824 0.2352,-0.5015 0.4542,-1.0102 0.6649,-1.5223 0.2126,-0.5188 0.4036,-1.0461 0.5852,-1.5763 0.1834,-0.5362 0.3546,-1.0764 0.5165,-1.6192 0.1672,-0.5503 0.3141,-1.1061 0.4605,-1.6621 0.1505,-0.5588 0.284,-1.122 0.4131,-1.686 0.1266,-0.5711 0.2418,-1.1445 0.35,-1.7192 0.1102,-0.5694 0.2079,-1.1411 0.3105,-1.712 0.096,-0.5624 0.1854,-1.1261 0.2638,-1.6915 0.08,-0.5592 0.152,-1.1196 0.2181,-1.6807 0.064,-0.5573 0.1193,-1.1155 0.1707,-1.674 0.049,-0.553 0.096,-1.1063 0.1363,-1.66 0.038,-0.5339 0.067,-1.0686 0.1155,-1.6016 0.032,-0.1966 0.1186,-0.9511 0.3363,-1.0319 0.087,-0.032 0.185,0 0.2775,0 0,0 0.4661,0.4454 0.4661,0.4454 l 0,0 c 0.08,0.1631 0.1734,0.3201 0.2383,0.4898 0.1815,0.4691 0.1416,1.0116 0.1577,1.5026 -0.026,0.5366 -0.07,1.0723 -0.11,1.6082 -0.041,0.5556 -0.082,1.1112 -0.1358,1.6659 -0.052,0.5587 -0.1092,1.1171 -0.1781,1.6741 -0.067,0.5634 -0.1349,1.1268 -0.2186,1.6881 -0.087,0.5643 -0.1723,1.1291 -0.2713,1.6915 -0.096,0.5744 -0.2005,1.1473 -0.3083,1.7195 -0.1135,0.5745 -0.2268,1.1491 -0.3602,1.7195 -0.1309,0.5664 -0.2692,1.1312 -0.4142,1.6943 -0.1477,0.5571 -0.3041,1.1118 -0.4689,1.6642 -0.1676,0.5425 -0.3389,1.0841 -0.5273,1.6199 -0.1881,0.5311 -0.3804,1.0607 -0.5968,1.5812 -0.2128,0.5139 -0.4354,1.0238 -0.6774,1.5248 -0.2382,0.4991 -0.4848,0.9943 -0.7392,1.4854 -0.2574,0.4941 -0.5197,0.9859 -0.7918,1.472 -0.2724,0.4863 -0.5473,0.9712 -0.8302,1.4516 -0.2805,0.4775 -0.5617,0.9548 -0.8526,1.4261 -0.2877,0.4705 -0.578,0.9393 -0.8715,1.4063 -0.291,0.4598 -0.5801,0.921 -0.8736,1.3791 -0.2878,0.4513 -0.5751,0.903 -0.8722,1.3483 -0.2901,0.4376 -0.5836,0.8729 -0.8814,1.3053 -0.2939,0.4259 -0.592,0.8488 -0.8927,1.2698 -0.2993,0.4187 -0.6012,0.8356 -0.9082,1.2485 -0.3064,0.411 -0.6172,0.8188 -0.9327,1.2228 -0.3198,0.3989 -0.6359,0.8009 -0.9657,1.1916 -0.3259,0.3896 -0.655,0.7768 -0.9929,1.1562 -0.336,0.3785 -0.6751,0.7544 -1.0254,1.1198 -0.3473,0.3658 -0.7004,0.7261 -1.0612,1.0786 -0.3581,0.3521 -0.7231,0.6968 -1.0925,1.0368 -0.3659,0.3284 -0.7314,0.6572 -1.1133,0.9669 -0.3704,0.3001 -0.7392,0.6027 -1.1196,0.8902 -0.3692,0.2765 -0.7384,0.5528 -1.1142,0.8204 -0.3558,0.2553 -0.7166,0.5031 -1.0799,0.7478 -0.3417,0.2301 -0.6776,0.4684 -1.0249,0.6902 -0.3195,0.2153 -0.6459,0.4206 -0.9742,0.6224 -0.2904,0.1823 -0.5856,0.3571 -0.8832,0.5274 -0.2619,0.1474 -0.5261,0.2904 -0.7931,0.428 -0.2365,0.1268 -0.4709,0.2569 -0.7098,0.3792 -0.2095,0.1085 -0.4189,0.217 -0.6339,0.3136 -0.1667,0.083 -0.3302,0.173 -0.4982,0.2536 -0.1284,0.061 -0.2563,0.1232 -0.3856,0.1825 -0.097,0.034 -0.1901,0.076 -0.2917,0.09 0,0 -0.951,-1.1121 -0.951,-1.1121 z"
         id="path4431"
         style="fill:#adcf4f;fill-opacity:1;fill-rule:nonzero;stroke:none" />
      <path
         inkscape:connector-curvature="0"
         id="path4433-7"
         d="m 5425.9474,4129.8672 c -1.2032,0.3925 -0.6473,0.1768 -1.5842,0.6188 -0.974,0.566 -1.8807,1.1609 -2.7534,1.7935 -0.8712,0.6328 -1.7193,1.2675 -2.564,1.9156 -0.8805,0.6647 -1.7638,1.3658 -2.6244,2.0414 -0.8803,0.6911 -1.7662,1.3703 -2.6241,2.0727 -0.8831,0.7175 -1.7598,1.439 -2.6226,2.1665 -0.8703,0.7422 -1.7156,1.5041 -2.5585,2.2593 -0.8544,0.7667 -1.7243,1.5145 -2.558,2.2905 -0.8337,0.7878 -1.6322,1.5805 -2.4317,2.3822 -0.8013,0.8026 -1.6144,1.6232 -2.3681,2.4437 -0.739,0.8076 -1.4852,1.6082 -2.1494,2.4403 -0.6449,0.8081 -1.2367,1.6064 -1.8058,2.4349 -0.5541,0.8122 -1.071,1.6659 -1.5546,2.4936 -0.4734,0.8113 -0.9248,1.6056 -1.3371,2.4275 -0.4012,0.8073 -0.7761,1.6086 -1.1183,2.4241 -0.3376,0.7986 -0.6906,1.6193 -0.9934,2.4222 -0.2983,0.7863 -0.5469,1.5671 -0.8068,2.3567 -0.2505,0.7682 -0.5062,1.522 -0.714,2.2928 -0.2041,0.7542 -0.3784,1.5333 -0.5266,2.2897 -0.1524,0.7463 -0.2986,1.4788 -0.4026,2.2255 -0.1022,0.7326 -0.2188,1.4917 -0.2776,2.2233 -0.054,0.7141 -0.084,1.4146 -0.092,2.1267 -0.01,0.701 -0.024,1.3952 0,2.094 0.03,0.6902 0.071,1.4071 0.1579,2.0914 0.077,0.6717 0.206,1.3003 0.3433,1.9638 0.1338,0.6502 0.3144,1.3195 0.4996,1.961 0.1998,0.6206 0.3825,1.2224 0.6228,1.8342 0.2341,0.583 0.4962,1.1595 0.7461,1.7385 0.2367,0.5343 0.5111,1.0861 0.7754,1.613 0.2468,0.4789 0.4647,0.9245 0.7407,1.3949 0.2472,0.4275 0.4912,0.8832 0.7706,1.3005 0.2574,0.3738 0.5112,0.7498 0.7988,1.1126 0.268,0.3253 0.5327,0.6419 0.8276,0.9559 0.2542,0.281 0.5704,0.5502 0.8257,0.8309 0.2444,0.2351 0.4576,0.4548 0.7296,0.6758 0.2441,0.1869 0.4967,0.3747 0.7587,0.5507 0.2241,0.1427 0.4781,0.2689 0.7251,0.395 0.2024,0.1063 0.4085,0.2451 0.6303,0.3339 0.1838,0.071 0.3442,0.1151 0.5341,0.1791 0.1709,0.045 0.3627,0.1342 0.5342,0.1791 0.625,-0.1586 0.966,-0.2291 1.2483,-0.1136 0.2639,0.1084 0.4491,0.3554 0.7938,0.8002 0.1566,0.083 0.3476,0.1594 0.5039,0.2422 0.1826,0.082 0.3515,0.1693 0.5351,0.2415 0.2223,0.088 0.438,0.1183 0.659,0.1773 0.2669,0.076 0.5549,0.1581 0.816,0.206 0.312,0.049 0.6021,0.081 0.908,0.1107 0.3498,0.022 0.6613,0.022 1.0004,0.015 0.3781,-0.031 0.809,-0.049 1.1863,-0.082 0.43,-0.029 0.8614,-0.09 1.2792,-0.1451 0.4577,-0.07 0.8659,-0.1408 1.3088,-0.2393 0.489,-0.1152 0.9901,-0.2845 1.4623,-0.4294 0.5223,-0.1563 0.9856,-0.3095 1.4924,-0.4922 0.5524,-0.206 1.1086,-0.4522 1.6457,-0.6822 0.5774,-0.2539 1.17,-0.4787 1.7384,-0.7461 0.5926,-0.2845 1.1351,-0.646 1.7039,-0.9644 0.5725,-0.3436 1.1615,-0.673 1.7024,-1.0581 0.5521,-0.3924 1.0921,-0.8047 1.6057,-1.2442 0.5291,-0.4423 1.0178,-0.9136 1.5094,-1.3989 0.4949,-0.494 1.0055,-1.0345 1.4755,-1.5547 0.4788,-0.5271 0.9318,-1.0582 1.3812,-1.6155 0.4551,-0.576 0.8607,-1.1642 1.2849,-1.7705 0.4319,-0.6176 0.8236,-1.2753 1.22,-1.9256 0.4064,-0.6549 0.7916,-1.327 1.1558,-2.0184 0.3723,-0.7063 0.72,-1.4402 1.0598,-2.1732 0.3474,-0.7551 0.6784,-1.5181 0.9952,-2.2972 0.325,-0.794 0.6334,-1.6067 0.9309,-2.4212 0.3048,-0.8301 0.5793,-1.6803 0.8351,-2.5446 0.2578,-0.8826 0.5019,-1.7826 0.7076,-2.699 0.2094,-0.9354 0.3702,-1.9113 0.5173,-2.8835 0.1474,-0.9945 0.2501,-1.9744 0.3279,-3.0056 0.08,-1.0616 0.096,-2.1574 0.1052,-3.252 0.01,-1.1141 -0.011,-2.2724 -0.054,-3.4058 -0.04,-1.1314 -0.1045,-2.2594 -0.1785,-3.4038 -0.082,-1.1359 -0.2004,-2.2898 -0.304,-3.4333 -0.1027,-1.1269 -0.2021,-2.2338 -0.3343,-3.3701 -0.1363,-1.1202 -0.301,-2.2412 -0.4592,-3.3682 -0.15,-1.0984 -0.316,-2.2309 -0.4899,-3.3364 -0.1703,-1.0807 -0.3596,-2.1863 -0.5515,-3.273 -0.1774,-1.0496 -0.3737,-2.0908 -0.5809,-3.1475 -0.2081,-1.0577 -0.4407,-2.0983 -0.7686,-3.1758 -0.3852,-0.9619 -0.1606,-0.4438 -0.7745,-1.5505 -0.2455,-0.2895 -0.5119,-0.5187 -0.8233,-0.7383 -1.2381,-0.8642 -2.933,-1.2106 -4.3315,-1.1821 z"
         style="fill:#5a711f;fill-opacity:1;fill-rule:nonzero;stroke:none" />
      <path
         inkscape:connector-curvature="0"
         id="path4433"
         d="m 5427.3754,4131.0682 c -1.1611,0.3633 -0.6541,0.1619 -1.5603,0.5776 -0.9436,0.5356 -1.7931,1.1003 -2.6405,1.7025 -0.846,0.6021 -1.6698,1.2066 -2.4905,1.8241 -0.8553,0.6332 -1.714,1.3016 -2.5504,1.9457 -0.8555,0.6589 -1.7162,1.3059 -2.5505,1.976 -0.8587,0.6844 -1.7113,1.3729 -2.5505,2.0673 -0.8468,0.7087 -1.6698,1.437 -2.4904,2.1585 -0.8319,0.7328 -1.6783,1.4468 -2.4904,2.1889 -0.8123,0.7535 -1.5909,1.5125 -2.3705,2.28 -0.7814,0.7686 -1.5745,1.5543 -2.3104,2.341 -0.7214,0.7744 -1.4504,1.5413 -2.1005,2.3408 -0.6314,0.7761 -1.2113,1.5437 -1.7703,2.3409 -0.5443,0.7816 -1.0533,1.6041 -1.5302,2.4017 -0.4666,0.782 -0.9121,1.5476 -1.3202,2.3409 -0.3975,0.7792 -0.7694,1.5834 -1.1103,2.3714 -0.3362,0.7716 -0.6874,1.534 -0.9902,2.3105 -0.2983,0.7602 -0.5788,1.5159 -0.8402,2.28 -0.2519,0.7435 -0.4788,1.5031 -0.6901,2.2497 -0.2073,0.7305 -0.3863,1.4554 -0.5401,2.1889 -0.1575,0.7235 -0.3089,1.434 -0.42,2.1585 -0.1092,0.711 -0.2326,1.4477 -0.3001,2.1585 -0.062,0.6938 -0.1018,1.3748 -0.12,2.0673 -0.019,0.6817 -0.044,1.3568 -0.03,2.0368 0.018,0.6718 0.047,1.3698 0.12,2.0369 0.063,0.6545 0.1783,1.2678 0.3,1.9153 0.1187,0.6346 0.2819,1.2884 0.4501,1.9153 0.1824,0.6066 0.3488,1.1949 0.5702,1.7936 0.216,0.5707 0.4589,1.1354 0.6901,1.7025 0.2192,0.5234 0.4442,1.0643 0.69,1.5808 0.2297,0.4696 0.4622,0.9064 0.7202,1.3681 0.2308,0.4197 0.4582,0.8667 0.7201,1.2769 0.2415,0.3675 0.4795,0.7372 0.7502,1.0944 0.2524,0.3205 0.5017,0.6326 0.7801,0.9425 0.2399,0.2771 0.539,0.5443 0.7802,0.8208 0.2308,0.2328 0.4326,0.4797 0.6901,0.6992 0.2312,0.1858 0.4709,0.3419 0.7201,0.5169 0.2128,0.1423 0.4549,0.2992 0.6902,0.4256 0.1926,0.1066 0.3582,0.2146 0.5701,0.304 0.1754,0.072 0.3587,0.1173 0.54,0.1824 0.1635,0.047 0.3162,0.1361 0.4801,0.1824 1.1661,-0.28 1.3087,-0.1752 1.9805,0.7296 0.1487,0.084 0.3312,0.1299 0.4801,0.2128 0.1242,0.059 0.2375,0.1242 0.36,0.1825 l 23.7644,-68.0988 c -0.3668,-0.048 -0.7361,-0.093 -1.0802,-0.091 z"
         style="fill:#adcf4f;fill-opacity:1;fill-rule:nonzero;stroke:none" />
    </g>
  </g>
</svg>
