<?xml version="1.0" encoding="UTF-8" standalone="no"?>
<!-- Created with Inkscape (http://www.inkscape.org/) -->

<svg
   xmlns:dc="http://purl.org/dc/elements/1.1/"
   xmlns:cc="http://creativecommons.org/ns#"
   xmlns:rdf="http://www.w3.org/1999/02/22-rdf-syntax-ns#"
   xmlns:svg="http://www.w3.org/2000/svg"
   xmlns="http://www.w3.org/2000/svg"
   xmlns:xlink="http://www.w3.org/1999/xlink"
   xmlns:sodipodi="http://sodipodi.sourceforge.net/DTD/sodipodi-0.dtd"
   xmlns:inkscape="http://www.inkscape.org/namespaces/inkscape"
   width="1063.932"
   height="390.8671"
   viewBox="0 0 1063.932 390.86708"
   id="svg5532"
   version="1.1"
   inkscape:version="0.91 r13725"
   sodipodi:docname="trees.svg">
  <defs
     id="defs5534">
    <linearGradient
       inkscape:collect="always"
       id="linearGradient6346">
      <stop
         style="stop-color:#f3f3f3;stop-opacity:1;"
         offset="0"
         id="stop6326" />
      <stop
         style="stop-color:#f3f3f3;stop-opacity:0;"
         offset="1"
         id="stop6328" />
    </linearGradient>
    <linearGradient
       inkscape:collect="always"
       xlink:href="#linearGradient6346"
       id="linearGradient6330"
       x1="-2254.0178"
       y1="816.08521"
       x2="1430.0223"
       y2="816.08521"
       gradientUnits="userSpaceOnUse"
       gradientTransform="matrix(0.21489594,0,0,0.21489594,495.59579,463.17712)" />
  </defs>
  <sodipodi:namedview
     id="base"
     pagecolor="#ffffff"
     bordercolor="#666666"
     borderopacity="1.0"
     inkscape:pageopacity="0.0"
     inkscape:pageshadow="2"
     inkscape:zoom="0.7"
     inkscape:cx="480.72428"
     inkscape:cy="33.855876"
     inkscape:document-units="px"
     inkscape:current-layer="layer1"
     showgrid="false"
     units="px"
     inkscape:window-width="1920"
     inkscape:window-height="955"
     inkscape:window-x="0"
     inkscape:window-y="0"
     inkscape:window-maximized="1"
     fit-margin-top="0"
     fit-margin-left="0"
     fit-margin-right="0"
     fit-margin-bottom="0" />
  <metadata
     id="metadata5537">
    <rdf:RDF>
      <cc:Work
         rdf:about="">
        <dc:format>image/svg+xml</dc:format>
        <dc:type
           rdf:resource="http://purl.org/dc/dcmitype/StillImage" />
        <dc:title></dc:title>
      </cc:Work>
    </rdf:RDF>
  </metadata>
  <g
     inkscape:label="Layer 1"
     inkscape:groupmode="layer"
     id="layer1"
     transform="translate(411.64224,-498.67258)">
    <path
       style="fill:url(#linearGradient6330);fill-opacity:1;stroke:none"
       d="m 43.867591,346.57787 694.128189,-4.40634 c 23.27152,19.95387 63.31426,119.18343 63.31426,119.18343 l 1.59174,473.33828 c 0,0.1309 -0.0696,0.2363 -0.15606,0.2363 l -783.594803,0 c -0.0864,0 -0.15412,-0.1054 -0.15601,-0.2363 l -7.77843,-532.12336 c 0,-0.13085 32.651114,-55.99201 32.651114,-55.99201 z"
       id="rect5745"
       inkscape:connector-curvature="0"
       sodipodi:nodetypes="cccsssssc" />
    <flowRoot
       xml:space="preserve"
       id="flowRoot5540"
       style="font-style:normal;font-weight:normal;font-size:40px;line-height:125%;font-family:Sans;letter-spacing:0px;word-spacing:0px;fill:#000000;fill-opacity:1;stroke:none;stroke-width:1px;stroke-linecap:butt;stroke-linejoin:miter;stroke-opacity:1"><flowRegion
         id="flowRegion5542"><rect
           id="rect5544"
           width="151.25558"
           height="503.11829"
           x="272.36606"
           y="75.459366" /></flowRegion><flowPara
         id="flowPara5546"></flowPara></flowRoot>    <path
       style="fill:#6a6a6a;fill-opacity:1;stroke:none"
       d="m 434.59908,620.53885 3.29311,-0.38339 c 0.49486,-0.0576 0.59432,12.82484 0.60742,13.32289 l 4.14144,157.93489 c 0.0131,0.498 -2.7742,3.4117 -2.7742,3.4117 l -6.88634,0.8332 c -0.49455,0.06 -4.20034,-2.3611 -4.18991,-2.8591 l 3.26743,-155.74139 c 0.0105,-0.49806 2.04619,-16.46121 2.54105,-16.5188 z"
       id="rect5578"
       inkscape:connector-curvature="0"
       sodipodi:nodetypes="sssscssss" />
    <path
       style="fill:#6a6a6a;fill-opacity:1;stroke:none"
       d="m 472.17702,577.13843 2.36,-0.29661 c -2.36,0.29661 -8.05602,7.41783 -8.15554,7.55817 l -28.94311,40.81902 c -0.0996,0.14034 -0.33534,0.16104 -0.51111,0.0513 l -2.67028,-1.67008 c -0.17576,-0.10995 -0.23304,-0.31039 -0.12341,-0.44801 l 32.74083,-41.09875 c 0.10963,-0.13762 5.30262,-4.91488 5.30262,-4.91488 z"
       id="rect5578-7"
       inkscape:connector-curvature="0"
       sodipodi:nodetypes="ccssssssc" />
    <path
       style="fill:#6a6a6a;fill-opacity:1;stroke:none"
       d="m 375.82081,603.75818 -2.29428,-5.22915 c -0.11115,-0.25338 16.86782,20.23613 17.0481,20.44606 l 45.19936,52.63381 c 0,0 2.25225,1.98572 1.98326,2.0505 l -2.94022,0.70856 c -0.26894,0.0648 -0.58693,0.0791 -0.76448,-0.13306 l -53.88304,-64.39583 c -0.1776,-0.21219 -4.3487,-6.08089 -4.3487,-6.08089 z"
       id="rect5578-7-4"
       inkscape:connector-curvature="0"
       sodipodi:nodetypes="csscssssc" />
    <path
       style="fill:#6a6a6a;fill-opacity:1;stroke:none"
       d="m 501.52245,605.33121 -0.56356,-1.1529 c -0.12153,-0.24861 -7.41155,8.14338 -7.59779,8.34796 l -59.66155,65.53407 c -0.1863,0.20454 -0.13384,0.4848 0.1078,0.61953 l 3.92957,2.19146 c 0.24163,0.13479 0.58693,0.0791 0.76448,-0.13305 l 51.19986,-61.16562 c 0.1776,-0.21213 11.94266,-13.99289 11.82119,-14.24145 z"
       id="rect5578-7-4-2"
       inkscape:connector-curvature="0"
       sodipodi:nodetypes="sssssssss" />
    <rect
       style="fill:#6a6a6a;fill-opacity:1;stroke:none"
       id="rect5578-7-0"
       width="2.3272383"
       height="36.267708"
       x="880.9278"
       y="-967.74921"
       ry="0.18690938"
       transform="matrix(-0.5128725,0.85846479,-0.99203124,0.12599217,0,0)" />
    <path
       style="fill:#6a6a6a;fill-opacity:1;stroke:none"
       d="m 400.81864,575.07096 -2.13392,-0.49208 c 2.13392,0.49208 7.28415,12.30703 7.37418,12.53992 l 26.17007,67.72327 c 0.09,0.23294 0.30316,0.26727 0.46211,0.0849 l 2.41444,-2.77085 c 0.15894,-0.18242 0.21072,-0.51498 0.11162,-0.74331 L 405.6132,583.22534 c -0.0991,-0.22833 -4.79456,-8.15438 -4.79456,-8.15438 z"
       id="rect5578-7-6"
       inkscape:connector-curvature="0"
       sodipodi:nodetypes="ccssssssc" />
    <rect
       style="fill:#6a6a6a;fill-opacity:1;stroke:none"
       id="rect5578-7-0-4"
       width="4.7497115"
       height="68.651245"
       x="640.00616"
       y="-943.69696"
       ry="0.35380125"
       transform="matrix(0.88008054,-0.47482443,0.13926489,-0.99025516,0,0)" />
    <rect
       style="fill:#6a6a6a;fill-opacity:1;stroke:none"
       id="rect5578-7-0-4-2"
       width="2.3272383"
       height="36.267708"
       x="-231.1777"
       y="-589.07849"
       ry="0.18690938"
       transform="matrix(0.0678564,-0.9976951,-0.7433283,-0.66892678,0,0)" />
    <path
       style="fill:#8f8f8f;fill-opacity:1;stroke:none"
       d="m 578.72731,549.94663 3.29311,-0.38334 c 0.49485,-0.0576 0.59437,12.82479 0.60742,13.32284 l 4.14149,157.93488 c 0.0131,0.498 -2.7742,3.4117 -2.7742,3.4117 l -6.88634,0.83329 c -0.4946,0.0598 -4.20034,-2.3611 -4.18992,-2.8592 l 3.26744,-155.74132 c 0.0105,-0.49811 2.04619,-16.46121 2.541,-16.51885 z"
       id="rect5578-0"
       inkscape:connector-curvature="0"
       sodipodi:nodetypes="sssscssss" />
    <path
       style="fill:#8f8f8f;fill-opacity:1;stroke:none"
       d="m 605.63387,507.51071 1.69901,-0.29063 c -1.69901,0.29063 -5.79957,7.26937 -5.87121,7.40693 L 580.6253,554.6292 c -0.0716,0.13761 -0.24138,0.15789 -0.36793,0.0503 l -1.92231,-1.63665 c -0.12656,-0.10774 -0.1678,-0.30421 -0.0889,-0.43904 l 23.57034,-40.27637 c 0.0789,-0.13489 3.81737,-4.81657 3.81737,-4.81657 z"
       id="rect5578-7-9"
       inkscape:connector-curvature="0"
       sodipodi:nodetypes="ccssssssc" />
    <path
       style="fill:#8f8f8f;fill-opacity:1;stroke:none"
       d="m 519.94909,533.16596 -2.29427,-5.22915 c -0.11121,-0.25338 16.86781,20.23618 17.04803,20.44606 l 45.19942,52.63386 c 0,0 2.25225,1.98567 1.98326,2.0505 l -2.94022,0.70851 c -0.26899,0.0648 -0.58693,0.0791 -0.76448,-0.13306 l -53.88309,-64.39584 c -0.17755,-0.21213 -4.34865,-6.08088 -4.34865,-6.08088 z"
       id="rect5578-7-4-9"
       inkscape:connector-curvature="0"
       sodipodi:nodetypes="csscssssc" />
    <path
       style="fill:#8f8f8f;fill-opacity:1;stroke:none"
       d="m 645.65068,534.73899 -0.56356,-1.1529 c -0.12148,-0.24856 -7.4115,8.14337 -7.59774,8.34796 l -59.6616,65.53407 c -0.18625,0.20459 -0.13379,0.4848 0.10785,0.61953 l 3.92956,2.19151 c 0.24164,0.13473 0.58688,0.0791 0.76448,-0.13305 l 51.19987,-61.16562 c 0.1776,-0.21218 11.94266,-13.99289 11.82114,-14.2415 z"
       id="rect5578-7-4-2-4"
       inkscape:connector-curvature="0"
       sodipodi:nodetypes="sssssssss" />
    <rect
       style="fill:#8f8f8f;fill-opacity:1;stroke:none"
       id="rect5578-7-0-6"
       width="2.3272383"
       height="36.267708"
       x="815.01886"
       y="-1078.9609"
       ry="0.18690938"
       transform="matrix(-0.5128725,0.85846479,-0.99203124,0.12599217,0,0)" />
    <path
       style="fill:#8f8f8f;fill-opacity:1;stroke:none"
       d="m 544.94687,504.47874 -2.13387,-0.49208 c 2.13387,0.49208 7.28415,12.30703 7.37413,12.53992 l 26.17007,67.72332 c 0.09,0.23289 0.30321,0.26722 0.46216,0.0848 l 2.41438,-2.77085 c 0.15895,-0.18237 0.21078,-0.51498 0.11163,-0.74331 l -29.60389,-68.18747 c -0.0992,-0.22833 -4.79461,-8.15438 -4.79461,-8.15438 z"
       id="rect5578-7-6-5"
       inkscape:connector-curvature="0"
       sodipodi:nodetypes="ccssssssc" />
    <rect
       style="fill:#8f8f8f;fill-opacity:1;stroke:none"
       id="rect5578-7-0-4-25"
       width="2.3272383"
       height="36.267708"
       x="819.69507"
       y="-977.80621"
       ry="0.18690938"
       transform="matrix(0.85846479,-0.5128725,0.12599217,-0.99203124,0,0)" />
    <rect
       style="fill:#8f8f8f;fill-opacity:1;stroke:none"
       id="rect5578-7-0-4-2-9"
       width="2.3272383"
       height="36.267708"
       x="-41.999416"
       y="-765.70471"
       ry="0.18690938"
       transform="matrix(0.0678564,-0.9976951,-0.7433283,-0.66892678,0,0)" />
    <path
       style="fill:#9d9d9d;fill-opacity:1;stroke:none"
       d="m 257.97239,578.43136 -3.29311,-0.317 c -0.49486,-0.0477 -0.59432,10.6031 -0.60743,11.01484 l -4.14143,130.57454 c -0.0131,0.41174 2.7742,2.82068 2.7742,2.82068 l 6.88629,0.68891 c 0.49459,0.0493 4.20039,-1.95207 4.18991,-2.36387 l -3.26743,-128.76102 c -0.0105,-0.41179 -2.04614,-13.6095 -2.541,-13.65708 z"
       id="rect5578-6"
       inkscape:connector-curvature="0"
       sodipodi:nodetypes="sssscssss" />
    <path
       style="fill:#9d9d9d;fill-opacity:1;stroke:none"
       d="m 220.39445,503.32678 -2.36,-0.49208 c 2.36,0.49208 8.05597,12.30703 8.15548,12.53992 l 28.94317,67.72332 c 0.0996,0.23289 0.33534,0.26721 0.51111,0.0848 l 2.67028,-2.77085 c 0.17576,-0.18237 0.23304,-0.51498 0.12341,-0.74331 l -32.74083,-68.18747 c -0.10969,-0.22833 -5.30262,-8.15438 -5.30262,-8.15438 z"
       id="rect5578-7-02"
       inkscape:connector-curvature="0"
       sodipodi:nodetypes="ccssssssc" />
    <path
       style="fill:#9d9d9d;fill-opacity:1;stroke:none"
       d="m 316.7506,561.71709 2.29433,-5.22915 c 0.11115,-0.25333 -16.86781,20.23618 -17.04809,20.44606 l -45.19936,52.63386 c 0,0 -2.25225,1.98567 -1.98331,2.05049 l 2.94022,0.70852 c 0.26899,0.0648 0.58698,0.0791 0.76453,-0.13306 l 53.88303,-64.39579 c 0.1776,-0.21218 4.34865,-6.08093 4.34865,-6.08093 z"
       id="rect5578-7-4-3"
       inkscape:connector-curvature="0"
       sodipodi:nodetypes="csscssssc" />
    <path
       style="fill:#9d9d9d;fill-opacity:1;stroke:none"
       d="m 191.04902,563.29017 0.56356,-1.15295 c 0.12147,-0.24856 7.41154,8.14337 7.59779,8.34796 l 59.66155,65.53407 c 0.18624,0.20459 0.13378,0.48479 -0.1078,0.61958 l -3.92957,2.19146 c -0.24164,0.13473 -0.58693,0.0791 -0.76453,-0.13306 l -51.19986,-61.16561 c -0.17755,-0.21213 -11.94267,-13.99289 -11.82114,-14.24145 z"
       id="rect5578-7-4-2-0"
       inkscape:connector-curvature="0"
       sodipodi:nodetypes="sssssssss" />
    <rect
       style="fill:#9d9d9d;fill-opacity:1;stroke:none"
       id="rect5578-7-0-8"
       width="2.3272383"
       height="36.267708"
       x="717.06024"
       y="-184.89629"
       ry="0.18690938"
       transform="matrix(0.5128725,0.85846479,0.99203124,0.12599217,0,0)" />
    <path
       style="fill:#9d9d9d;fill-opacity:1;stroke:none"
       d="m 291.75283,533.02992 2.13386,-0.49214 c -2.13386,0.49214 -7.28409,12.30704 -7.37413,12.53992 l -26.17006,67.72333 c -0.09,0.23289 -0.30317,0.26727 -0.46211,0.0848 l -2.41444,-2.77085 c -0.15894,-0.18237 -0.21077,-0.51493 -0.11162,-0.74326 l 29.60394,-68.18752 c 0.0991,-0.22833 4.79456,-8.15433 4.79456,-8.15433 z"
       id="rect5578-7-6-9"
       inkscape:connector-curvature="0"
       sodipodi:nodetypes="ccssssssc" />
    <rect
       style="fill:#9d9d9d;fill-opacity:1;stroke:none"
       id="rect5578-7-0-4-3"
       width="3.2486675"
       height="77.354675"
       x="-390.62653"
       y="-270.69492"
       ry="0.39865524"
       transform="matrix(-0.61497583,-0.78854596,-0.05907138,-0.99825376,0,0)" />
    <rect
       style="fill:#9d9d9d;fill-opacity:1;stroke:none"
       id="rect5578-7-0-4-2-7"
       width="2.3272383"
       height="36.267708"
       x="-780.13068"
       y="292.52588"
       ry="0.18690938"
       transform="matrix(-0.0678564,-0.9976951,0.7433283,-0.66892678,0,0)" />
    <path
       style="fill:#6a6a6a;fill-opacity:1;stroke:none"
       d="m 179.80502,618.82951 3.29311,-0.38339 c 0.49486,-0.0576 0.59437,12.82484 0.60742,13.3229 l 4.14144,157.93482 c 0.0131,0.4981 -2.7742,3.4117 -2.7742,3.4117 l -6.88629,0.8333 c -0.4946,0.06 -4.20039,-2.3611 -4.18991,-2.8592 l 3.26743,-155.74133 c 0.0105,-0.49805 2.04614,-16.46121 2.541,-16.5188 z"
       id="rect5578-2"
       inkscape:connector-curvature="0"
       sodipodi:nodetypes="sssscssss" />
    <path
       style="fill:#6a6a6a;fill-opacity:1;stroke:none"
       d="m 217.38296,575.42909 2.35999,-0.29661 c -2.35999,0.29661 -8.05596,7.41783 -8.15553,7.55817 l -28.94312,40.81902 c -0.0995,0.14034 -0.33533,0.16104 -0.5111,0.0514 l -2.67028,-1.67009 c -0.17577,-0.10994 -0.23304,-0.31039 -0.12341,-0.44801 l 32.74083,-41.09875 c 0.10963,-0.13761 5.30262,-4.91488 5.30262,-4.91488 z"
       id="rect5578-7-5"
       inkscape:connector-curvature="0"
       sodipodi:nodetypes="ccssssssc" />
    <path
       style="fill:#6a6a6a;fill-opacity:1;stroke:none"
       d="m 121.02675,602.04885 -2.29427,-5.22916 c -0.11115,-0.25337 16.86781,20.23613 17.04808,20.44607 l 45.19937,52.63381 c 0,0 2.25225,1.98572 1.98326,2.05049 l -2.94017,0.70856 c -0.26899,0.0648 -0.58698,0.0791 -0.76453,-0.13305 l -53.88304,-64.39584 c -0.1776,-0.21219 -4.3487,-6.08088 -4.3487,-6.08088 z"
       id="rect5578-7-4-26"
       inkscape:connector-curvature="0"
       sodipodi:nodetypes="csscssssc" />
    <path
       style="fill:#6a6a6a;fill-opacity:1;stroke:none"
       d="m 246.72838,603.62188 -0.56356,-1.15291 c -0.12152,-0.24855 -7.41154,8.14338 -7.59779,8.34797 l -59.66154,65.53407 c -0.1863,0.20453 -0.13379,0.48479 0.1078,0.61952 l 3.92956,2.19146 c 0.24164,0.13479 0.58688,0.0791 0.76448,-0.13305 l 51.19986,-61.16561 c 0.1776,-0.21214 11.94267,-13.9929 11.82119,-14.24145 z"
       id="rect5578-7-4-2-3"
       inkscape:connector-curvature="0"
       sodipodi:nodetypes="sssssssss" />
    <rect
       style="fill:#6a6a6a;fill-opacity:1;stroke:none"
       id="rect5578-7-0-2"
       width="2.3272383"
       height="36.267708"
       x="837.98297"
       y="-688.70636"
       ry="0.18690938"
       transform="matrix(-0.5128725,0.85846479,-0.99203124,0.12599217,0,0)" />
    <path
       style="fill:#6a6a6a;fill-opacity:1;stroke:none"
       d="m 146.02458,573.36162 -2.13387,-0.49208 c 2.13387,0.49208 7.2841,12.30704 7.37413,12.53992 l 26.17007,67.72328 c 0.09,0.23294 0.30321,0.26726 0.46211,0.0849 l 2.41444,-2.77084 c 0.15894,-0.18242 0.21077,-0.51498 0.11162,-0.74331 l -29.60394,-68.18748 c -0.0991,-0.22832 -4.79456,-8.15438 -4.79456,-8.15438 z"
       id="rect5578-7-6-56"
       inkscape:connector-curvature="0"
       sodipodi:nodetypes="ccssssssc" />
    <rect
       style="fill:#6a6a6a;fill-opacity:1;stroke:none"
       id="rect5578-7-0-4-5"
       width="4.7497115"
       height="68.651245"
       x="326.42767"
       y="-791.61084"
       ry="0.35380125"
       transform="matrix(0.88008054,-0.47482443,0.13926489,-0.99025516,0,0)" />
    <rect
       style="fill:#6a6a6a;fill-opacity:1;stroke:none"
       id="rect5578-7-0-4-2-75"
       width="2.3272383"
       height="36.267708"
       x="-446.12906"
       y="-265.92618"
       ry="0.18690938"
       transform="matrix(0.0678564,-0.9976951,-0.7433283,-0.66892678,0,0)" />
    <path
       style="fill:#6a6a6a;fill-opacity:1;stroke:none"
       d="m -95.775106,714.41928 3.29311,-0.38339 c 0.49486,-0.0576 0.59432,12.82484 0.60742,13.32289 l 4.14144,157.93489 c 0.0131,0.498 -2.7742,3.4117 -2.7742,3.4117 l -6.88634,0.8332 c -0.49455,0.06 -4.200344,-2.3611 -4.189914,-2.8591 l 3.267434,-155.74139 c 0.0105,-0.49806 2.04619,-16.46121 2.54105,-16.5188 z"
       id="rect5578-9"
       inkscape:connector-curvature="0"
       sodipodi:nodetypes="sssscssss" />
    <path
       style="fill:#6a6a6a;fill-opacity:1;stroke:none"
       d="m -58.197166,671.01886 2.36,-0.29661 c -2.36,0.29661 -8.05602,7.41783 -8.15554,7.55817 l -28.94311,40.81902 c -0.0996,0.14034 -0.33534,0.16104 -0.51111,0.0513 l -2.67028,-1.67008 c -0.17576,-0.10995 -0.23304,-0.31039 -0.12341,-0.44801 l 32.74083,-41.09875 c 0.10963,-0.13762 5.30262,-4.91488 5.30262,-4.91488 z"
       id="rect5578-7-8"
       inkscape:connector-curvature="0"
       sodipodi:nodetypes="ccssssssc" />
    <path
       style="fill:#6a6a6a;fill-opacity:1;stroke:none"
       d="m -154.55338,697.63861 -2.29428,-5.22915 c -0.11115,-0.25338 16.86782,20.23613 17.0481,20.44606 l 45.199364,52.63381 c 0,0 2.25225,1.98572 1.98326,2.0505 l -2.94022,0.70856 c -0.26894,0.0648 -0.58693,0.0791 -0.76448,-0.13306 L -150.20468,703.7195 c -0.1776,-0.21219 -4.3487,-6.08089 -4.3487,-6.08089 z"
       id="rect5578-7-4-8"
       inkscape:connector-curvature="0"
       sodipodi:nodetypes="csscssssc" />
    <path
       style="fill:#6a6a6a;fill-opacity:1;stroke:none"
       d="m -28.851736,699.21164 -0.56356,-1.1529 c -0.12153,-0.24861 -7.41155,8.14338 -7.59779,8.34796 l -59.66155,65.53407 c -0.1863,0.20454 -0.13384,0.4848 0.1078,0.61953 l 3.92957,2.19146 c 0.24163,0.13479 0.58693,0.0791 0.76448,-0.13305 l 51.19986,-61.16562 c 0.1776,-0.21213 11.94266,-13.99289 11.82119,-14.24145 z"
       id="rect5578-7-4-2-34"
       inkscape:connector-curvature="0"
       sodipodi:nodetypes="sssssssss" />
    <rect
       style="fill:#6a6a6a;fill-opacity:1;stroke:none"
       id="rect5578-7-0-84"
       width="2.3272383"
       height="36.267708"
       x="914.35748"
       y="-450.39758"
       ry="0.18690938"
       transform="matrix(-0.5128725,0.85846479,-0.99203124,0.12599217,0,0)" />
    <path
       style="fill:#6a6a6a;fill-opacity:1;stroke:none"
       d="m -129.55555,668.95139 -2.13392,-0.49208 c 2.13392,0.49208 7.28415,12.30703 7.37418,12.53992 l 26.170074,67.72327 c 0.09,0.23294 0.30316,0.26727 0.46211,0.0849 l 2.41444,-2.77085 c 0.15894,-0.18242 0.21072,-0.51498 0.11162,-0.74331 l -29.603944,-68.18747 c -0.0991,-0.22833 -4.79456,-8.15438 -4.79456,-8.15438 z"
       id="rect5578-7-6-58"
       inkscape:connector-curvature="0"
       sodipodi:nodetypes="ccssssssc" />
    <rect
       style="fill:#6a6a6a;fill-opacity:1;stroke:none"
       id="rect5578-7-0-4-56"
       width="4.7497115"
       height="68.651245"
       x="4.1164837"
       y="-733.59393"
       ry="0.35380125"
       transform="matrix(0.88008054,-0.47482443,0.13926489,-0.99025516,0,0)" />
    <rect
       style="fill:#6a6a6a;fill-opacity:1;stroke:none"
       id="rect5578-7-0-4-2-6"
       width="2.3272383"
       height="36.267708"
       x="-770.64691"
       y="75.187592"
       ry="0.18690938"
       transform="matrix(0.0678564,-0.9976951,-0.7433283,-0.66892678,0,0)" />
    <path
       style="fill:#8f8f8f;fill-opacity:1;stroke:none"
       d="m 48.353104,643.82706 3.2931,-0.38334 c 0.4949,-0.0576 0.5944,12.82479 0.6075,13.32284 l 4.1414,157.93488 c 0.013,0.498 -2.7742,3.4117 -2.7742,3.4117 l -6.8863,0.83329 c -0.4946,0.0598 -4.2003,-2.3611 -4.1899,-2.8592 l 3.2674,-155.74132 c 0.011,-0.49811 2.0462,-16.46121 2.541,-16.51885 z"
       id="rect5578-0-5"
       inkscape:connector-curvature="0"
       sodipodi:nodetypes="sssscssss" />
    <path
       style="fill:#8f8f8f;fill-opacity:1;stroke:none"
       d="m 75.259704,601.39114 1.699,-0.29063 c -1.699,0.29063 -5.7996,7.26937 -5.8712,7.40693 l -20.8364,40.00219 c -0.072,0.13761 -0.2414,0.15789 -0.3679,0.0503 l -1.9223,-1.63665 c -0.1266,-0.10774 -0.1678,-0.30421 -0.089,-0.43904 l 23.5703,-40.27637 c 0.079,-0.13489 3.8174,-4.81657 3.8174,-4.81657 z"
       id="rect5578-7-9-8"
       inkscape:connector-curvature="0"
       sodipodi:nodetypes="ccssssssc" />
    <path
       style="fill:#8f8f8f;fill-opacity:1;stroke:none"
       d="m -10.425096,627.04639 -2.29427,-5.22915 c -0.11121,-0.25338 16.8677699,20.23618 17.0480699,20.44606 l 45.1994001,52.63386 c 0,0 2.2522,1.98567 1.9832,2.0505 l -2.9402,0.70851 c -0.269,0.0648 -0.5869,0.0791 -0.7645,-0.13306 L -6.0764461,633.12727 c -0.17755,-0.21213 -4.3486499,-6.08088 -4.3486499,-6.08088 z"
       id="rect5578-7-4-9-4"
       inkscape:connector-curvature="0"
       sodipodi:nodetypes="csscssssc" />
    <path
       style="fill:#8f8f8f;fill-opacity:1;stroke:none"
       d="m 115.2765,628.61942 -0.5636,-1.1529 c -0.1214,-0.24856 -7.4115,8.14337 -7.5977,8.34796 l -59.661596,65.53407 c -0.1863,0.20459 -0.1338,0.4848 0.1078,0.61953 l 3.9296,2.19151 c 0.2416,0.13473 0.5869,0.0791 0.7645,-0.13305 L 103.4554,642.86092 c 0.1776,-0.21218 11.9426,-13.99289 11.8211,-14.2415 z"
       id="rect5578-7-4-2-4-0"
       inkscape:connector-curvature="0"
       sodipodi:nodetypes="sssssssss" />
    <rect
       style="fill:#8f8f8f;fill-opacity:1;stroke:none"
       id="rect5578-7-0-6-4"
       width="2.3272383"
       height="36.267708"
       x="848.44855"
       y="-561.60925"
       ry="0.18690938"
       transform="matrix(-0.5128725,0.85846479,-0.99203124,0.12599217,0,0)" />
    <path
       style="fill:#8f8f8f;fill-opacity:1;stroke:none"
       d="m 14.572704,598.35917 -2.1339,-0.49208 c 2.1339,0.49208 7.2842,12.30703 7.3741,12.53992 l 26.1701,67.72332 c 0.09,0.23289 0.3032,0.26722 0.4622,0.0848 l 2.4144,-2.77085 c 0.1589,-0.18237 0.2107,-0.51498 0.1116,-0.74331 l -29.6039,-68.18747 c -0.099,-0.22833 -4.7946,-8.15438 -4.7946,-8.15438 z"
       id="rect5578-7-6-5-6"
       inkscape:connector-curvature="0"
       sodipodi:nodetypes="ccssssssc" />
    <rect
       style="fill:#8f8f8f;fill-opacity:1;stroke:none"
       id="rect5578-7-0-4-25-5"
       width="2.3272383"
       height="36.267708"
       x="166.18091"
       y="-734.57898"
       ry="0.18690938"
       transform="matrix(0.85846479,-0.5128725,0.12599217,-0.99203124,0,0)" />
    <rect
       style="fill:#8f8f8f;fill-opacity:1;stroke:none"
       id="rect5578-7-0-4-2-9-7"
       width="2.3272383"
       height="36.267708"
       x="-581.46863"
       y="-101.43863"
       ry="0.18690938"
       transform="matrix(0.0678564,-0.9976951,-0.7433283,-0.66892678,0,0)" />
    <path
       style="fill:#9d9d9d;fill-opacity:1;stroke:none"
       d="m -272.4018,672.31179 -3.29311,-0.317 c -0.49486,-0.0477 -0.59432,10.6031 -0.60743,11.01484 l -4.14143,130.57454 c -0.0131,0.41174 2.7742,2.82068 2.7742,2.82068 l 6.88629,0.68891 c 0.49459,0.0493 4.20039,-1.95207 4.18991,-2.36387 l -3.26743,-128.76102 c -0.0105,-0.41179 -2.04614,-13.6095 -2.541,-13.65708 z"
       id="rect5578-6-6"
       inkscape:connector-curvature="0"
       sodipodi:nodetypes="sssscssss" />
    <path
       style="fill:#9d9d9d;fill-opacity:1;stroke:none"
       d="m -309.97974,597.20721 -2.35999,-0.49208 c 2.35999,0.49208 8.05596,12.30703 8.15547,12.53992 l 28.94317,67.72332 c 0.0996,0.23289 0.33534,0.26721 0.51111,0.0848 l 2.67028,-2.77085 c 0.17576,-0.18237 0.23304,-0.51498 0.12341,-0.74331 l -32.74083,-68.18747 c -0.10969,-0.22833 -5.30262,-8.15438 -5.30262,-8.15438 z"
       id="rect5578-7-02-1"
       inkscape:connector-curvature="0"
       sodipodi:nodetypes="ccssssssc" />
    <path
       style="fill:#9d9d9d;fill-opacity:1;stroke:none"
       d="m -213.62359,655.59752 2.29433,-5.22915 c 0.11115,-0.25333 -16.86781,20.23618 -17.04809,20.44606 l -45.19936,52.63386 c 0,0 -2.25225,1.98567 -1.98331,2.05049 l 2.94022,0.70852 c 0.26899,0.0648 0.58698,0.0791 0.76453,-0.13306 l 53.88303,-64.39579 c 0.1776,-0.21218 4.34865,-6.08093 4.34865,-6.08093 z"
       id="rect5578-7-4-3-8"
       inkscape:connector-curvature="0"
       sodipodi:nodetypes="csscssssc" />
    <path
       style="fill:#9d9d9d;fill-opacity:1;stroke:none"
       d="m -339.32516,657.1706 0.56356,-1.15295 c 0.12147,-0.24856 7.41154,8.14337 7.59779,8.34796 l 59.66154,65.53407 c 0.18624,0.20459 0.13378,0.48479 -0.1078,0.61958 l -3.92957,2.19146 c -0.24164,0.13473 -0.58693,0.0791 -0.76453,-0.13306 l -51.19985,-61.16561 c -0.17755,-0.21213 -11.94267,-13.99289 -11.82114,-14.24145 z"
       id="rect5578-7-4-2-0-4"
       inkscape:connector-curvature="0"
       sodipodi:nodetypes="sssssssss" />
    <rect
       style="fill:#9d9d9d;fill-opacity:1;stroke:none"
       id="rect5578-7-0-8-4"
       width="2.3272383"
       height="36.267708"
       x="920.3056"
       y="-824.60712"
       ry="0.18690938"
       transform="matrix(0.5128725,0.85846479,0.99203124,0.12599217,0,0)" />
    <path
       style="fill:#9d9d9d;fill-opacity:1;stroke:none"
       d="m -238.62136,626.91035 2.13386,-0.49214 c -2.13386,0.49214 -7.28409,12.30704 -7.37413,12.53992 l -26.17006,67.72333 c -0.09,0.23289 -0.30317,0.26727 -0.46211,0.0848 l -2.41444,-2.77085 c -0.15894,-0.18237 -0.21077,-0.51493 -0.11162,-0.74326 l 29.60394,-68.18752 c 0.0991,-0.22833 4.79456,-8.15433 4.79456,-8.15433 z"
       id="rect5578-7-6-9-5"
       inkscape:connector-curvature="0"
       sodipodi:nodetypes="ccssssssc" />
    <rect
       style="fill:#9d9d9d;fill-opacity:1;stroke:none"
       id="rect5578-7-0-4-3-4"
       width="3.2486675"
       height="77.354675"
       x="552.39026"
       y="-1109.6525"
       ry="0.39865524"
       transform="matrix(-0.61497583,-0.78854596,-0.05907138,-0.99825376,0,0)" />
    <rect
       style="fill:#9d9d9d;fill-opacity:1;stroke:none"
       id="rect5578-7-0-4-2-7-4"
       width="2.3272383"
       height="36.267708"
       x="-418.00195"
       y="-387.92908"
       ry="0.18690938"
       transform="matrix(-0.0678564,-0.9976951,0.7433283,-0.66892678,0,0)" />
    <path
       style="fill:#6a6a6a;fill-opacity:1;stroke:none"
       d="m -350.56916,712.70994 3.29311,-0.38339 c 0.49486,-0.0576 0.59437,12.82484 0.60742,13.3229 l 4.14144,157.93482 c 0.0131,0.4981 -2.7742,3.4117 -2.7742,3.4117 l -6.88629,0.8333 c -0.4946,0.06 -4.20039,-2.3611 -4.18991,-2.8592 l 3.26743,-155.74133 c 0.0105,-0.49805 2.04614,-16.46121 2.541,-16.5188 z"
       id="rect5578-2-2"
       inkscape:connector-curvature="0"
       sodipodi:nodetypes="sssscssss" />
    <path
       style="fill:#6a6a6a;fill-opacity:1;stroke:none"
       d="m -312.99122,669.30952 2.35998,-0.29661 c -2.35998,0.29661 -8.05595,7.41783 -8.15552,7.55817 l -28.94312,40.81902 c -0.0995,0.14034 -0.33533,0.16104 -0.5111,0.0514 l -2.67028,-1.67009 c -0.17577,-0.10994 -0.23304,-0.31039 -0.12341,-0.44801 l 32.74083,-41.09875 c 0.10963,-0.13761 5.30262,-4.91488 5.30262,-4.91488 z"
       id="rect5578-7-5-8"
       inkscape:connector-curvature="0"
       sodipodi:nodetypes="ccssssssc" />
    <path
       style="fill:#6a6a6a;fill-opacity:1;stroke:none"
       d="m -409.34743,695.92928 -2.29427,-5.22916 c -0.11115,-0.25337 16.86781,20.23613 17.04808,20.44607 l 45.19937,52.63381 c 0,0 2.25225,1.98572 1.98326,2.05049 l -2.94017,0.70856 c -0.26899,0.0648 -0.58698,0.0791 -0.76453,-0.13305 l -53.88304,-64.39584 c -0.1776,-0.21219 -4.3487,-6.08088 -4.3487,-6.08088 z"
       id="rect5578-7-4-26-9"
       inkscape:connector-curvature="0"
       sodipodi:nodetypes="csscssssc" />
    <path
       style="fill:#6a6a6a;fill-opacity:1;stroke:none"
       d="m -283.64581,697.50231 -0.56356,-1.15291 c -0.12152,-0.24855 -7.41154,8.14338 -7.59779,8.34797 l -59.66153,65.53407 c -0.1863,0.20453 -0.13379,0.48479 0.1078,0.61952 l 3.92956,2.19146 c 0.24164,0.13479 0.58688,0.0791 0.76448,-0.13305 l 51.19985,-61.16561 c 0.1776,-0.21214 11.94267,-13.9929 11.82119,-14.24145 z"
       id="rect5578-7-4-2-3-4"
       inkscape:connector-curvature="0"
       sodipodi:nodetypes="sssssssss" />
    <rect
       style="fill:#6a6a6a;fill-opacity:1;stroke:none"
       id="rect5578-7-0-2-4"
       width="2.3272383"
       height="36.267708"
       x="871.41266"
       y="-171.35461"
       ry="0.18690938"
       transform="matrix(-0.5128725,0.85846479,-0.99203124,0.12599217,0,0)" />
    <path
       style="fill:#6a6a6a;fill-opacity:1;stroke:none"
       d="m -384.3496,667.24205 -2.13387,-0.49208 c 2.13387,0.49208 7.2841,12.30704 7.37413,12.53992 l 26.17007,67.72328 c 0.09,0.23294 0.30321,0.26726 0.46211,0.0849 l 2.41444,-2.77084 c 0.15894,-0.18242 0.21077,-0.51498 0.11162,-0.74331 l -29.60394,-68.18748 c -0.0991,-0.22832 -4.79456,-8.15438 -4.79456,-8.15438 z"
       id="rect5578-7-6-56-6"
       inkscape:connector-curvature="0"
       sodipodi:nodetypes="ccssssssc" />
    <rect
       style="fill:#6a6a6a;fill-opacity:1;stroke:none"
       id="rect5578-7-0-4-5-5"
       width="4.7497115"
       height="68.651245"
       x="-309.46201"
       y="-581.50787"
       ry="0.35380125"
       transform="matrix(0.88008054,-0.47482443,0.13926489,-0.99025516,0,0)" />
    <rect
       style="fill:#6a6a6a;fill-opacity:1;stroke:none"
       id="rect5578-7-0-4-2-75-7"
       width="2.3272383"
       height="36.267708"
       x="-985.59827"
       y="398.33987"
       ry="0.18690938"
       transform="matrix(0.0678564,-0.9976951,-0.7433283,-0.66892678,0,0)" />
  </g>
</svg>
